G04 (created by PCBNEW (2013-jul-07)-stable) date Wed 08 Apr 2015 02:36:29 PM EDT*
%MOIN*%
G04 Gerber Fmt 3.4, Leading zero omitted, Abs format*
%FSLAX34Y34*%
G01*
G70*
G90*
G04 APERTURE LIST*
%ADD10C,0.00590551*%
%ADD11C,0.0065*%
%ADD12C,0.00393701*%
%ADD13R,0.02X0.06*%
%ADD14R,0.02X0.045*%
%ADD15R,0.205X0.18*%
%ADD16R,0.187X0.025*%
%ADD17R,0.035X0.055*%
%ADD18R,0.119X0.038*%
%ADD19R,0.07X0.025*%
%ADD20C,0.0748031*%
%ADD21R,0.055X0.035*%
%ADD22C,0.176*%
%ADD23R,0.13X0.095*%
%ADD24R,0.06X0.08*%
%ADD25R,0.12X0.08*%
%ADD26R,0.085X0.07*%
%ADD27R,0.1102X0.0787*%
%ADD28R,0.0394X0.0787*%
%ADD29R,0.03X0.04*%
%ADD30C,0.2*%
%ADD31R,0.213X0.134*%
%ADD32C,0.013*%
%ADD33C,0.01*%
G04 APERTURE END LIST*
G54D10*
G54D11*
X36822Y-20716D02*
X36944Y-20716D01*
X36868Y-20609D02*
X36868Y-20883D01*
X36883Y-20914D01*
X36914Y-20929D01*
X36944Y-20929D01*
X37097Y-20746D02*
X37066Y-20731D01*
X37051Y-20716D01*
X37036Y-20685D01*
X37036Y-20670D01*
X37051Y-20640D01*
X37066Y-20624D01*
X37097Y-20609D01*
X37158Y-20609D01*
X37188Y-20624D01*
X37203Y-20640D01*
X37219Y-20670D01*
X37219Y-20685D01*
X37203Y-20716D01*
X37188Y-20731D01*
X37158Y-20746D01*
X37097Y-20746D01*
X37066Y-20761D01*
X37051Y-20777D01*
X37036Y-20807D01*
X37036Y-20868D01*
X37051Y-20899D01*
X37066Y-20914D01*
X37097Y-20929D01*
X37158Y-20929D01*
X37188Y-20914D01*
X37203Y-20899D01*
X37219Y-20868D01*
X37219Y-20807D01*
X37203Y-20777D01*
X37188Y-20761D01*
X37158Y-20746D01*
X37508Y-20609D02*
X37356Y-20609D01*
X37340Y-20761D01*
X37356Y-20746D01*
X37386Y-20731D01*
X37462Y-20731D01*
X37493Y-20746D01*
X37508Y-20761D01*
X37523Y-20792D01*
X37523Y-20868D01*
X37508Y-20899D01*
X37493Y-20914D01*
X37462Y-20929D01*
X37386Y-20929D01*
X37356Y-20914D01*
X37340Y-20899D01*
X37660Y-20807D02*
X37904Y-20807D01*
X38026Y-20716D02*
X38087Y-20929D01*
X38148Y-20777D01*
X38209Y-20929D01*
X38270Y-20716D01*
X38392Y-20929D02*
X38392Y-20716D01*
X38392Y-20609D02*
X38377Y-20624D01*
X38392Y-20640D01*
X38407Y-20624D01*
X38392Y-20609D01*
X38392Y-20640D01*
X38499Y-20716D02*
X38620Y-20716D01*
X38544Y-20609D02*
X38544Y-20883D01*
X38560Y-20914D01*
X38590Y-20929D01*
X38620Y-20929D01*
X38727Y-20929D02*
X38727Y-20609D01*
X38864Y-20929D02*
X38864Y-20761D01*
X38849Y-20731D01*
X38819Y-20716D01*
X38773Y-20716D01*
X38742Y-20731D01*
X38727Y-20746D01*
X39017Y-20807D02*
X39260Y-20807D01*
X39550Y-20929D02*
X39550Y-20609D01*
X39550Y-20914D02*
X39520Y-20929D01*
X39459Y-20929D01*
X39428Y-20914D01*
X39413Y-20899D01*
X39398Y-20868D01*
X39398Y-20777D01*
X39413Y-20746D01*
X39428Y-20731D01*
X39459Y-20716D01*
X39520Y-20716D01*
X39550Y-20731D01*
X39702Y-20929D02*
X39702Y-20716D01*
X39702Y-20777D02*
X39718Y-20746D01*
X39733Y-20731D01*
X39763Y-20716D01*
X39794Y-20716D01*
X39900Y-20929D02*
X39900Y-20716D01*
X39900Y-20609D02*
X39885Y-20624D01*
X39900Y-20640D01*
X39916Y-20624D01*
X39900Y-20609D01*
X39900Y-20640D01*
X40022Y-20716D02*
X40099Y-20929D01*
X40175Y-20716D01*
X40419Y-20914D02*
X40388Y-20929D01*
X40327Y-20929D01*
X40297Y-20914D01*
X40281Y-20883D01*
X40281Y-20761D01*
X40297Y-20731D01*
X40327Y-20716D01*
X40388Y-20716D01*
X40419Y-20731D01*
X40434Y-20761D01*
X40434Y-20792D01*
X40281Y-20822D01*
X40571Y-20929D02*
X40571Y-20716D01*
X40571Y-20777D02*
X40586Y-20746D01*
X40601Y-20731D01*
X40632Y-20716D01*
X40662Y-20716D01*
X40769Y-20807D02*
X41013Y-20807D01*
X41302Y-20929D02*
X41302Y-20761D01*
X41287Y-20731D01*
X41257Y-20716D01*
X41196Y-20716D01*
X41165Y-20731D01*
X41302Y-20914D02*
X41272Y-20929D01*
X41196Y-20929D01*
X41165Y-20914D01*
X41150Y-20883D01*
X41150Y-20853D01*
X41165Y-20822D01*
X41196Y-20807D01*
X41272Y-20807D01*
X41302Y-20792D01*
X41455Y-20716D02*
X41455Y-20929D01*
X41455Y-20746D02*
X41470Y-20731D01*
X41500Y-20716D01*
X41546Y-20716D01*
X41577Y-20731D01*
X41592Y-20761D01*
X41592Y-20929D01*
X41881Y-20929D02*
X41881Y-20609D01*
X41881Y-20914D02*
X41851Y-20929D01*
X41790Y-20929D01*
X41760Y-20914D01*
X41744Y-20899D01*
X41729Y-20868D01*
X41729Y-20777D01*
X41744Y-20746D01*
X41760Y-20731D01*
X41790Y-20716D01*
X41851Y-20716D01*
X41881Y-20731D01*
X42034Y-20807D02*
X42278Y-20807D01*
X42430Y-20716D02*
X42430Y-21036D01*
X42430Y-20731D02*
X42460Y-20716D01*
X42521Y-20716D01*
X42552Y-20731D01*
X42567Y-20746D01*
X42582Y-20777D01*
X42582Y-20868D01*
X42567Y-20899D01*
X42552Y-20914D01*
X42521Y-20929D01*
X42460Y-20929D01*
X42430Y-20914D01*
X42765Y-20929D02*
X42735Y-20914D01*
X42720Y-20899D01*
X42704Y-20868D01*
X42704Y-20777D01*
X42720Y-20746D01*
X42735Y-20731D01*
X42765Y-20716D01*
X42811Y-20716D01*
X42841Y-20731D01*
X42857Y-20746D01*
X42872Y-20777D01*
X42872Y-20868D01*
X42857Y-20899D01*
X42841Y-20914D01*
X42811Y-20929D01*
X42765Y-20929D01*
X43131Y-20914D02*
X43100Y-20929D01*
X43039Y-20929D01*
X43009Y-20914D01*
X42994Y-20883D01*
X42994Y-20761D01*
X43009Y-20731D01*
X43039Y-20716D01*
X43100Y-20716D01*
X43131Y-20731D01*
X43146Y-20761D01*
X43146Y-20792D01*
X42994Y-20822D01*
X32869Y-32256D02*
X32869Y-32469D01*
X32792Y-32134D02*
X32716Y-32362D01*
X32914Y-32362D01*
X33036Y-32469D02*
X33036Y-32149D01*
X33067Y-32347D02*
X33158Y-32469D01*
X33158Y-32256D02*
X33036Y-32378D01*
X33265Y-32149D02*
X33478Y-32149D01*
X33341Y-32469D01*
X30623Y-37507D02*
X30638Y-37522D01*
X30623Y-37537D01*
X30608Y-37522D01*
X30623Y-37507D01*
X30623Y-37537D01*
X30760Y-37248D02*
X30775Y-37232D01*
X30806Y-37217D01*
X30882Y-37217D01*
X30913Y-37232D01*
X30928Y-37248D01*
X30943Y-37278D01*
X30943Y-37308D01*
X30928Y-37354D01*
X30745Y-37537D01*
X30943Y-37537D01*
X31065Y-37248D02*
X31080Y-37232D01*
X31111Y-37217D01*
X31187Y-37217D01*
X31217Y-37232D01*
X31233Y-37248D01*
X31248Y-37278D01*
X31248Y-37308D01*
X31233Y-37354D01*
X31050Y-37537D01*
X31248Y-37537D01*
X31522Y-37324D02*
X31522Y-37537D01*
X31385Y-37324D02*
X31385Y-37491D01*
X31400Y-37522D01*
X31431Y-37537D01*
X31476Y-37537D01*
X31507Y-37522D01*
X31522Y-37507D01*
X30908Y-36736D02*
X30908Y-36949D01*
X30831Y-36614D02*
X30755Y-36842D01*
X30953Y-36842D01*
X31075Y-36949D02*
X31075Y-36629D01*
X31106Y-36827D02*
X31197Y-36949D01*
X31197Y-36736D02*
X31075Y-36858D01*
X31304Y-36629D02*
X31517Y-36629D01*
X31380Y-36949D01*
X32301Y-35869D02*
X32119Y-35869D01*
X32210Y-35869D02*
X32210Y-35549D01*
X32180Y-35595D01*
X32149Y-35625D01*
X32119Y-35640D01*
X32439Y-35869D02*
X32439Y-35549D01*
X32469Y-35747D02*
X32560Y-35869D01*
X32560Y-35656D02*
X32439Y-35778D01*
X35510Y-34284D02*
X35510Y-34101D01*
X35510Y-34192D02*
X35830Y-34192D01*
X35784Y-34162D01*
X35754Y-34131D01*
X35739Y-34101D01*
X35830Y-34482D02*
X35830Y-34512D01*
X35815Y-34543D01*
X35800Y-34558D01*
X35769Y-34573D01*
X35708Y-34589D01*
X35632Y-34589D01*
X35571Y-34573D01*
X35540Y-34558D01*
X35525Y-34543D01*
X35510Y-34512D01*
X35510Y-34482D01*
X35525Y-34451D01*
X35540Y-34436D01*
X35571Y-34421D01*
X35632Y-34406D01*
X35708Y-34406D01*
X35769Y-34421D01*
X35800Y-34436D01*
X35815Y-34451D01*
X35830Y-34482D01*
X35723Y-34726D02*
X35510Y-34726D01*
X35693Y-34726D02*
X35708Y-34741D01*
X35723Y-34771D01*
X35723Y-34817D01*
X35708Y-34848D01*
X35678Y-34863D01*
X35510Y-34863D01*
X44240Y-28902D02*
X44261Y-28908D01*
X44290Y-28926D01*
X44328Y-28992D01*
X44330Y-29026D01*
X44324Y-29047D01*
X44305Y-29076D01*
X44279Y-29091D01*
X44232Y-29101D01*
X43982Y-29034D01*
X44081Y-29205D01*
X44503Y-29296D02*
X44427Y-29164D01*
X44287Y-29227D01*
X44308Y-29233D01*
X44337Y-29251D01*
X44375Y-29317D01*
X44377Y-29351D01*
X44371Y-29372D01*
X44352Y-29401D01*
X44286Y-29439D01*
X44252Y-29441D01*
X44231Y-29435D01*
X44203Y-29416D01*
X44165Y-29350D01*
X44163Y-29316D01*
X44168Y-29296D01*
X44302Y-29588D02*
X44579Y-29428D01*
X44423Y-29553D02*
X44363Y-29693D01*
X44548Y-29587D02*
X44381Y-29542D01*
X44416Y-29786D02*
X44685Y-29824D01*
X44601Y-29679D02*
X44500Y-29931D01*
X44804Y-29879D02*
X44825Y-29884D01*
X44854Y-29903D01*
X44892Y-29969D01*
X44894Y-30003D01*
X44888Y-30024D01*
X44869Y-30052D01*
X44843Y-30067D01*
X44796Y-30077D01*
X44546Y-30010D01*
X44645Y-30182D01*
X45404Y-36557D02*
X45404Y-36237D01*
X45480Y-36237D01*
X45526Y-36252D01*
X45556Y-36283D01*
X45571Y-36313D01*
X45587Y-36374D01*
X45587Y-36420D01*
X45571Y-36481D01*
X45556Y-36511D01*
X45526Y-36542D01*
X45480Y-36557D01*
X45404Y-36557D01*
X45907Y-36557D02*
X45800Y-36405D01*
X45724Y-36557D02*
X45724Y-36237D01*
X45846Y-36237D01*
X45876Y-36252D01*
X45891Y-36268D01*
X45907Y-36298D01*
X45907Y-36344D01*
X45891Y-36374D01*
X45876Y-36389D01*
X45846Y-36405D01*
X45724Y-36405D01*
X46044Y-36557D02*
X46044Y-36237D01*
X46166Y-36237D01*
X46196Y-36252D01*
X46211Y-36268D01*
X46227Y-36298D01*
X46227Y-36344D01*
X46211Y-36374D01*
X46196Y-36389D01*
X46166Y-36405D01*
X46044Y-36405D01*
X44390Y-32174D02*
X44405Y-32189D01*
X44420Y-32220D01*
X44420Y-32296D01*
X44405Y-32326D01*
X44390Y-32341D01*
X44359Y-32357D01*
X44329Y-32357D01*
X44283Y-32341D01*
X44100Y-32159D01*
X44100Y-32357D01*
X44420Y-32463D02*
X44420Y-32677D01*
X44100Y-32540D01*
X44420Y-32860D02*
X44420Y-32890D01*
X44405Y-32920D01*
X44390Y-32936D01*
X44359Y-32951D01*
X44298Y-32966D01*
X44222Y-32966D01*
X44161Y-32951D01*
X44130Y-32936D01*
X44115Y-32920D01*
X44100Y-32890D01*
X44100Y-32860D01*
X44115Y-32829D01*
X44130Y-32814D01*
X44161Y-32799D01*
X44222Y-32783D01*
X44298Y-32783D01*
X44359Y-32799D01*
X44390Y-32814D01*
X44405Y-32829D01*
X44420Y-32860D01*
X44100Y-33103D02*
X44420Y-33103D01*
X44222Y-33134D02*
X44100Y-33225D01*
X44313Y-33225D02*
X44191Y-33103D01*
X40913Y-34266D02*
X40928Y-34281D01*
X40913Y-34296D01*
X40898Y-34281D01*
X40913Y-34266D01*
X40913Y-34296D01*
X41050Y-34007D02*
X41065Y-33991D01*
X41096Y-33976D01*
X41172Y-33976D01*
X41203Y-33991D01*
X41218Y-34007D01*
X41233Y-34037D01*
X41233Y-34067D01*
X41218Y-34113D01*
X41035Y-34296D01*
X41233Y-34296D01*
X41355Y-34007D02*
X41370Y-33991D01*
X41401Y-33976D01*
X41477Y-33976D01*
X41507Y-33991D01*
X41523Y-34007D01*
X41538Y-34037D01*
X41538Y-34067D01*
X41523Y-34113D01*
X41340Y-34296D01*
X41538Y-34296D01*
X41812Y-34083D02*
X41812Y-34296D01*
X41675Y-34083D02*
X41675Y-34250D01*
X41690Y-34281D01*
X41721Y-34296D01*
X41766Y-34296D01*
X41797Y-34281D01*
X41812Y-34266D01*
X41768Y-32644D02*
X41768Y-32324D01*
X41951Y-32644D01*
X41951Y-32324D01*
X41248Y-29334D02*
X41294Y-29349D01*
X41370Y-29349D01*
X41400Y-29334D01*
X41416Y-29319D01*
X41431Y-29288D01*
X41431Y-29258D01*
X41416Y-29227D01*
X41400Y-29212D01*
X41370Y-29197D01*
X41309Y-29181D01*
X41279Y-29166D01*
X41263Y-29151D01*
X41248Y-29120D01*
X41248Y-29090D01*
X41263Y-29060D01*
X41279Y-29044D01*
X41309Y-29029D01*
X41385Y-29029D01*
X41431Y-29044D01*
X41751Y-29319D02*
X41736Y-29334D01*
X41690Y-29349D01*
X41660Y-29349D01*
X41614Y-29334D01*
X41583Y-29303D01*
X41568Y-29273D01*
X41553Y-29212D01*
X41553Y-29166D01*
X41568Y-29105D01*
X41583Y-29075D01*
X41614Y-29044D01*
X41660Y-29029D01*
X41690Y-29029D01*
X41736Y-29044D01*
X41751Y-29060D01*
X42071Y-29349D02*
X41964Y-29197D01*
X41888Y-29349D02*
X41888Y-29029D01*
X42010Y-29029D01*
X42040Y-29044D01*
X42056Y-29060D01*
X42071Y-29090D01*
X42071Y-29136D01*
X42056Y-29166D01*
X42040Y-29181D01*
X42010Y-29197D01*
X41888Y-29197D01*
X41578Y-26435D02*
X41761Y-26435D01*
X41669Y-26435D02*
X41669Y-26755D01*
X41700Y-26709D01*
X41730Y-26679D01*
X41761Y-26664D01*
X47540Y-32236D02*
X47540Y-32053D01*
X47540Y-32145D02*
X47860Y-32145D01*
X47814Y-32114D01*
X47784Y-32084D01*
X47769Y-32053D01*
X45890Y-32266D02*
X45890Y-32083D01*
X45890Y-32175D02*
X46210Y-32175D01*
X46164Y-32144D01*
X46134Y-32114D01*
X46119Y-32083D01*
X42641Y-35079D02*
X42459Y-35079D01*
X42550Y-35079D02*
X42550Y-34759D01*
X42520Y-34805D01*
X42489Y-34835D01*
X42459Y-34850D01*
X42840Y-34759D02*
X42870Y-34759D01*
X42900Y-34774D01*
X42916Y-34790D01*
X42931Y-34820D01*
X42946Y-34881D01*
X42946Y-34957D01*
X42931Y-35018D01*
X42916Y-35049D01*
X42900Y-35064D01*
X42870Y-35079D01*
X42840Y-35079D01*
X42809Y-35064D01*
X42794Y-35049D01*
X42779Y-35018D01*
X42763Y-34957D01*
X42763Y-34881D01*
X42779Y-34820D01*
X42794Y-34790D01*
X42809Y-34774D01*
X42840Y-34759D01*
X43144Y-34759D02*
X43175Y-34759D01*
X43205Y-34774D01*
X43220Y-34790D01*
X43236Y-34820D01*
X43251Y-34881D01*
X43251Y-34957D01*
X43236Y-35018D01*
X43220Y-35049D01*
X43205Y-35064D01*
X43175Y-35079D01*
X43144Y-35079D01*
X43114Y-35064D01*
X43099Y-35049D01*
X43083Y-35018D01*
X43068Y-34957D01*
X43068Y-34881D01*
X43083Y-34820D01*
X43099Y-34790D01*
X43114Y-34774D01*
X43144Y-34759D01*
X43525Y-34866D02*
X43525Y-35079D01*
X43388Y-34866D02*
X43388Y-35033D01*
X43403Y-35064D01*
X43434Y-35079D01*
X43480Y-35079D01*
X43510Y-35064D01*
X43525Y-35049D01*
X34954Y-33642D02*
X34954Y-33459D01*
X34954Y-33551D02*
X35274Y-33551D01*
X35228Y-33520D01*
X35198Y-33490D01*
X35183Y-33459D01*
X34774Y-37909D02*
X34789Y-37863D01*
X34789Y-37787D01*
X34774Y-37757D01*
X34759Y-37741D01*
X34728Y-37726D01*
X34698Y-37726D01*
X34667Y-37741D01*
X34652Y-37757D01*
X34637Y-37787D01*
X34621Y-37848D01*
X34606Y-37879D01*
X34591Y-37894D01*
X34560Y-37909D01*
X34530Y-37909D01*
X34500Y-37894D01*
X34484Y-37879D01*
X34469Y-37848D01*
X34469Y-37772D01*
X34484Y-37726D01*
X34667Y-37589D02*
X34667Y-37345D01*
X38052Y-34701D02*
X37991Y-34701D01*
X37960Y-34716D01*
X37945Y-34732D01*
X37915Y-34777D01*
X37899Y-34838D01*
X37899Y-34960D01*
X37915Y-34991D01*
X37930Y-35006D01*
X37960Y-35021D01*
X38021Y-35021D01*
X38052Y-35006D01*
X38067Y-34991D01*
X38082Y-34960D01*
X38082Y-34884D01*
X38067Y-34853D01*
X38052Y-34838D01*
X38021Y-34823D01*
X37960Y-34823D01*
X37930Y-34838D01*
X37915Y-34853D01*
X37899Y-34884D01*
X38265Y-34838D02*
X38235Y-34823D01*
X38219Y-34808D01*
X38204Y-34777D01*
X38204Y-34762D01*
X38219Y-34732D01*
X38235Y-34716D01*
X38265Y-34701D01*
X38326Y-34701D01*
X38356Y-34716D01*
X38372Y-34732D01*
X38387Y-34762D01*
X38387Y-34777D01*
X38372Y-34808D01*
X38356Y-34823D01*
X38326Y-34838D01*
X38265Y-34838D01*
X38235Y-34853D01*
X38219Y-34869D01*
X38204Y-34899D01*
X38204Y-34960D01*
X38219Y-34991D01*
X38235Y-35006D01*
X38265Y-35021D01*
X38326Y-35021D01*
X38356Y-35006D01*
X38372Y-34991D01*
X38387Y-34960D01*
X38387Y-34899D01*
X38372Y-34869D01*
X38356Y-34853D01*
X38326Y-34838D01*
X38661Y-34808D02*
X38661Y-35021D01*
X38524Y-34808D02*
X38524Y-34975D01*
X38539Y-35006D01*
X38570Y-35021D01*
X38616Y-35021D01*
X38646Y-35006D01*
X38661Y-34991D01*
X38814Y-35021D02*
X38814Y-34701D01*
X38814Y-34853D02*
X38996Y-34853D01*
X38996Y-35021D02*
X38996Y-34701D01*
X37262Y-31522D02*
X37278Y-31537D01*
X37262Y-31552D01*
X37247Y-31537D01*
X37262Y-31522D01*
X37262Y-31552D01*
X37582Y-31552D02*
X37400Y-31552D01*
X37491Y-31552D02*
X37491Y-31232D01*
X37461Y-31278D01*
X37430Y-31308D01*
X37400Y-31323D01*
X37857Y-31339D02*
X37857Y-31552D01*
X37720Y-31339D02*
X37720Y-31506D01*
X37735Y-31537D01*
X37765Y-31552D01*
X37811Y-31552D01*
X37842Y-31537D01*
X37857Y-31522D01*
X37979Y-31552D02*
X38146Y-31339D01*
X37979Y-31339D02*
X38146Y-31552D01*
X38238Y-31232D02*
X38436Y-31232D01*
X38329Y-31354D01*
X38375Y-31354D01*
X38405Y-31369D01*
X38421Y-31384D01*
X38436Y-31415D01*
X38436Y-31491D01*
X38421Y-31522D01*
X38405Y-31537D01*
X38375Y-31552D01*
X38283Y-31552D01*
X38253Y-31537D01*
X38238Y-31522D01*
X35818Y-28656D02*
X35818Y-28869D01*
X35741Y-28534D02*
X35665Y-28762D01*
X35863Y-28762D01*
X36000Y-28869D02*
X36061Y-28869D01*
X36092Y-28854D01*
X36107Y-28839D01*
X36138Y-28793D01*
X36153Y-28732D01*
X36153Y-28610D01*
X36138Y-28580D01*
X36122Y-28564D01*
X36092Y-28549D01*
X36031Y-28549D01*
X36000Y-28564D01*
X35985Y-28580D01*
X35970Y-28610D01*
X35970Y-28686D01*
X35985Y-28717D01*
X36000Y-28732D01*
X36031Y-28747D01*
X36092Y-28747D01*
X36122Y-28732D01*
X36138Y-28717D01*
X36153Y-28686D01*
X36290Y-28839D02*
X36305Y-28854D01*
X36290Y-28869D01*
X36275Y-28854D01*
X36290Y-28839D01*
X36290Y-28869D01*
X36458Y-28869D02*
X36519Y-28869D01*
X36549Y-28854D01*
X36564Y-28839D01*
X36595Y-28793D01*
X36610Y-28732D01*
X36610Y-28610D01*
X36595Y-28580D01*
X36580Y-28564D01*
X36549Y-28549D01*
X36488Y-28549D01*
X36458Y-28564D01*
X36442Y-28580D01*
X36427Y-28610D01*
X36427Y-28686D01*
X36442Y-28717D01*
X36458Y-28732D01*
X36488Y-28747D01*
X36549Y-28747D01*
X36580Y-28732D01*
X36595Y-28717D01*
X36610Y-28686D01*
X36717Y-28869D02*
X36884Y-28656D01*
X36717Y-28656D02*
X36884Y-28869D01*
X37143Y-28656D02*
X37143Y-28869D01*
X37067Y-28534D02*
X36991Y-28762D01*
X37189Y-28762D01*
X32223Y-28949D02*
X32041Y-28949D01*
X32132Y-28949D02*
X32132Y-28629D01*
X32102Y-28675D01*
X32071Y-28705D01*
X32041Y-28720D01*
X32422Y-28629D02*
X32452Y-28629D01*
X32482Y-28644D01*
X32498Y-28660D01*
X32513Y-28690D01*
X32528Y-28751D01*
X32528Y-28827D01*
X32513Y-28888D01*
X32498Y-28919D01*
X32482Y-28934D01*
X32452Y-28949D01*
X32422Y-28949D01*
X32391Y-28934D01*
X32376Y-28919D01*
X32361Y-28888D01*
X32345Y-28827D01*
X32345Y-28751D01*
X32361Y-28690D01*
X32376Y-28660D01*
X32391Y-28644D01*
X32422Y-28629D01*
X32726Y-28629D02*
X32757Y-28629D01*
X32787Y-28644D01*
X32802Y-28660D01*
X32818Y-28690D01*
X32833Y-28751D01*
X32833Y-28827D01*
X32818Y-28888D01*
X32802Y-28919D01*
X32787Y-28934D01*
X32757Y-28949D01*
X32726Y-28949D01*
X32696Y-28934D01*
X32681Y-28919D01*
X32665Y-28888D01*
X32650Y-28827D01*
X32650Y-28751D01*
X32665Y-28690D01*
X32681Y-28660D01*
X32696Y-28644D01*
X32726Y-28629D01*
X33107Y-28736D02*
X33107Y-28949D01*
X32970Y-28736D02*
X32970Y-28903D01*
X32985Y-28934D01*
X33016Y-28949D01*
X33062Y-28949D01*
X33092Y-28934D01*
X33107Y-28919D01*
X30549Y-28018D02*
X30549Y-28201D01*
X30549Y-28109D02*
X30229Y-28109D01*
X30275Y-28140D01*
X30305Y-28170D01*
X30320Y-28201D01*
X31133Y-23761D02*
X30950Y-23761D01*
X31041Y-23761D02*
X31041Y-23441D01*
X31011Y-23487D01*
X30980Y-23517D01*
X30950Y-23532D01*
X31331Y-23441D02*
X31361Y-23441D01*
X31392Y-23456D01*
X31407Y-23472D01*
X31422Y-23502D01*
X31438Y-23563D01*
X31438Y-23639D01*
X31422Y-23700D01*
X31407Y-23731D01*
X31392Y-23746D01*
X31361Y-23761D01*
X31331Y-23761D01*
X31300Y-23746D01*
X31285Y-23731D01*
X31270Y-23700D01*
X31255Y-23639D01*
X31255Y-23563D01*
X31270Y-23502D01*
X31285Y-23472D01*
X31300Y-23456D01*
X31331Y-23441D01*
X31712Y-23548D02*
X31712Y-23761D01*
X31575Y-23548D02*
X31575Y-23715D01*
X31590Y-23746D01*
X31620Y-23761D01*
X31666Y-23761D01*
X31697Y-23746D01*
X31712Y-23731D01*
X32139Y-23008D02*
X32139Y-23191D01*
X32139Y-23099D02*
X31819Y-23099D01*
X31865Y-23130D01*
X31895Y-23160D01*
X31910Y-23191D01*
G54D12*
X48818Y-39763D02*
X48818Y-20078D01*
X29133Y-39763D02*
X48818Y-39763D01*
X29133Y-20078D02*
X29133Y-39763D01*
X48818Y-20078D02*
X29133Y-20078D01*
G54D13*
X30281Y-24643D03*
X30781Y-24643D03*
X31281Y-24643D03*
X31781Y-24643D03*
X31781Y-27243D03*
X31281Y-27243D03*
X30781Y-27243D03*
X30281Y-27243D03*
G54D14*
X32524Y-23183D03*
X33024Y-23183D03*
X33524Y-23183D03*
X34024Y-23183D03*
X34524Y-23183D03*
X35024Y-23183D03*
X35524Y-23183D03*
X35524Y-21083D03*
X35024Y-21083D03*
X34524Y-21083D03*
X34024Y-21083D03*
X33524Y-21083D03*
X33024Y-21083D03*
X32524Y-21083D03*
G54D15*
X47663Y-22431D03*
G54D16*
X43113Y-23631D03*
X43113Y-24131D03*
X43113Y-24631D03*
X43113Y-25131D03*
X43113Y-25631D03*
X43113Y-26131D03*
X43113Y-26631D03*
X43113Y-27131D03*
G54D15*
X47663Y-28331D03*
G54D17*
X30604Y-23495D03*
X29854Y-23495D03*
G54D18*
X35221Y-25389D03*
X35221Y-26389D03*
X35221Y-27389D03*
X33041Y-25389D03*
X33041Y-26389D03*
X33041Y-27389D03*
G54D19*
X41426Y-26066D03*
X41426Y-25566D03*
X41426Y-25066D03*
X41426Y-24566D03*
X41426Y-24066D03*
X41426Y-23566D03*
X41426Y-23066D03*
X41426Y-22566D03*
X37726Y-22566D03*
X37726Y-23066D03*
X37726Y-23566D03*
X37726Y-24066D03*
X37726Y-24566D03*
X37726Y-25066D03*
X37726Y-25566D03*
X37726Y-26066D03*
G54D20*
X30531Y-29427D03*
X30531Y-31396D03*
X30531Y-33364D03*
X30531Y-35333D03*
G54D21*
X32675Y-24595D03*
X32675Y-23845D03*
G54D22*
X47368Y-38487D03*
G54D14*
X34592Y-35883D03*
X34592Y-33783D03*
X34092Y-35883D03*
X33592Y-35883D03*
X33092Y-35883D03*
X34092Y-33783D03*
X33592Y-33783D03*
X33092Y-33783D03*
G54D23*
X33842Y-34833D03*
G54D24*
X45131Y-35611D03*
X46431Y-35611D03*
G54D17*
X45726Y-30837D03*
X44976Y-30837D03*
X45795Y-29352D03*
X45045Y-29352D03*
X32208Y-37943D03*
X32958Y-37943D03*
X34178Y-32943D03*
X33428Y-32943D03*
X32208Y-36762D03*
X32958Y-36762D03*
X42235Y-33110D03*
X41485Y-33110D03*
X43696Y-33110D03*
X42946Y-33110D03*
X42526Y-34040D03*
X43276Y-34040D03*
G54D21*
X35500Y-36068D03*
X35500Y-35318D03*
X32385Y-35208D03*
X32385Y-34458D03*
G54D25*
X41907Y-35868D03*
X43907Y-35868D03*
G54D26*
X34630Y-38428D03*
X34630Y-36828D03*
G54D27*
X41978Y-30096D03*
G54D28*
X42372Y-31670D03*
X41584Y-31670D03*
G54D29*
X45944Y-33939D03*
X44894Y-33939D03*
X45944Y-31579D03*
X44884Y-31579D03*
X47705Y-33965D03*
X46655Y-33965D03*
X47705Y-31605D03*
X46645Y-31605D03*
G54D30*
X40707Y-38309D03*
X43146Y-38324D03*
G54D31*
X38511Y-36649D03*
X38511Y-32649D03*
G54D25*
X32566Y-30481D03*
X34566Y-30481D03*
G54D21*
X39763Y-27971D03*
X39763Y-28721D03*
X38976Y-27971D03*
X38976Y-28721D03*
X38188Y-27971D03*
X38188Y-28721D03*
X37401Y-27971D03*
X37401Y-28721D03*
X39763Y-29939D03*
X39763Y-30689D03*
X37795Y-29939D03*
X37795Y-30689D03*
X36220Y-30727D03*
X36220Y-31477D03*
G54D22*
X45275Y-21259D03*
X30314Y-21259D03*
X30314Y-38582D03*
G54D24*
X35097Y-24535D03*
X33797Y-24535D03*
G54D32*
X42600Y-22200D02*
X42600Y-22000D01*
X42800Y-22200D02*
X42600Y-22200D01*
X43000Y-22000D02*
X42800Y-22200D01*
X43000Y-21800D02*
X43000Y-22000D01*
X42800Y-21800D02*
X43000Y-21800D01*
X42600Y-22000D02*
X42800Y-21800D01*
X43000Y-21800D02*
X43000Y-21600D01*
X43000Y-21600D02*
X43200Y-21800D01*
X43200Y-21800D02*
X43000Y-21800D01*
X45155Y-29562D02*
X45045Y-29352D01*
X45220Y-29562D02*
X45155Y-29562D01*
X45247Y-29562D02*
X45220Y-29562D01*
X45285Y-29600D02*
X45247Y-29562D01*
X45420Y-29736D02*
X45285Y-29600D01*
X45575Y-29892D02*
X45420Y-29736D01*
X46015Y-30287D02*
X45575Y-29892D01*
X46176Y-30449D02*
X46015Y-30287D01*
X46587Y-31367D02*
X46176Y-30449D01*
X46587Y-31405D02*
X46587Y-31367D01*
X46587Y-31470D02*
X46587Y-31405D01*
X46645Y-31605D02*
X46587Y-31470D01*
X43983Y-27191D02*
X43113Y-27131D01*
X43983Y-27256D02*
X43983Y-27191D01*
X43983Y-27283D02*
X43983Y-27256D01*
X44935Y-29050D02*
X43983Y-27283D01*
X44935Y-29077D02*
X44935Y-29050D01*
X44935Y-29142D02*
X44935Y-29077D01*
X45045Y-29352D02*
X44935Y-29142D01*
X43113Y-26691D02*
X43113Y-26631D01*
X43113Y-26756D02*
X43113Y-26691D01*
X43113Y-27006D02*
X43113Y-26756D01*
X43113Y-27071D02*
X43113Y-27006D01*
X43113Y-27131D02*
X43113Y-27071D01*
X32595Y-35410D02*
X32777Y-35717D01*
X32595Y-35383D02*
X32595Y-35410D01*
X32595Y-35318D02*
X32595Y-35383D01*
X32385Y-35208D02*
X32595Y-35318D01*
X32318Y-36552D02*
X32208Y-36762D01*
X32318Y-36487D02*
X32318Y-36552D01*
X32318Y-36460D02*
X32318Y-36487D01*
X32777Y-35717D02*
X32318Y-36460D01*
X32208Y-37733D02*
X32208Y-37943D01*
X32208Y-37668D02*
X32208Y-37733D01*
X32208Y-37037D02*
X32208Y-37668D01*
X32208Y-36972D02*
X32208Y-37037D01*
X32208Y-36762D02*
X32208Y-36972D01*
X32965Y-35723D02*
X32777Y-35717D01*
X32992Y-35723D02*
X32965Y-35723D01*
X33057Y-35723D02*
X32992Y-35723D01*
X33092Y-35883D02*
X33057Y-35723D01*
X33538Y-33153D02*
X33428Y-32943D01*
X33538Y-33218D02*
X33538Y-33153D01*
X33538Y-33245D02*
X33538Y-33218D01*
X33557Y-33531D02*
X33538Y-33245D01*
X33557Y-33558D02*
X33557Y-33531D01*
X33557Y-33623D02*
X33557Y-33558D01*
X33592Y-33783D02*
X33557Y-33623D01*
X35710Y-36178D02*
X35500Y-36068D01*
X35775Y-36178D02*
X35710Y-36178D01*
X37446Y-36178D02*
X35775Y-36178D01*
X37511Y-36178D02*
X37446Y-36178D01*
X38511Y-36649D02*
X37511Y-36178D01*
X34270Y-36543D02*
X34630Y-36828D01*
X34270Y-36478D02*
X34270Y-36543D01*
X34270Y-36451D02*
X34270Y-36478D01*
X34127Y-36135D02*
X34270Y-36451D01*
X34127Y-36108D02*
X34127Y-36135D01*
X34127Y-36043D02*
X34127Y-36108D01*
X34092Y-35883D02*
X34127Y-36043D01*
X35317Y-36178D02*
X35500Y-36068D01*
X35317Y-36243D02*
X35317Y-36178D01*
X35317Y-36281D02*
X35317Y-36243D01*
X35120Y-36505D02*
X35317Y-36281D01*
X35082Y-36543D02*
X35120Y-36505D01*
X35055Y-36543D02*
X35082Y-36543D01*
X34990Y-36543D02*
X35055Y-36543D01*
X34630Y-36828D02*
X34990Y-36543D01*
X30746Y-27008D02*
X30781Y-27243D01*
X30746Y-26943D02*
X30746Y-27008D01*
X30746Y-26916D02*
X30746Y-26943D01*
X30708Y-26878D02*
X30746Y-26916D01*
X30487Y-26686D02*
X30708Y-26878D01*
X30425Y-26680D02*
X30487Y-26686D01*
X30358Y-26673D02*
X30425Y-26680D01*
X30134Y-26673D02*
X30358Y-26673D01*
X30080Y-26698D02*
X30134Y-26673D01*
X29936Y-26841D02*
X30080Y-26698D01*
X29936Y-27441D02*
X29936Y-26841D01*
X29936Y-27644D02*
X29936Y-27441D01*
X29997Y-28090D02*
X29936Y-27644D01*
X29997Y-28250D02*
X29997Y-28090D01*
X29997Y-28807D02*
X29997Y-28250D01*
X29920Y-29199D02*
X29997Y-28807D01*
X29920Y-29656D02*
X29920Y-29199D01*
X30531Y-31396D02*
X29920Y-29656D01*
X38011Y-23626D02*
X37726Y-23566D01*
X38076Y-23626D02*
X38011Y-23626D01*
X38103Y-23626D02*
X38076Y-23626D01*
X38190Y-23666D02*
X38103Y-23626D01*
X38351Y-23827D02*
X38190Y-23666D01*
X38691Y-24962D02*
X38351Y-23827D01*
X38766Y-27769D02*
X38691Y-24962D01*
X38766Y-27796D02*
X38766Y-27769D01*
X38766Y-27861D02*
X38766Y-27796D01*
X38976Y-27971D02*
X38766Y-27861D01*
X34559Y-21243D02*
X34524Y-21083D01*
X34559Y-21308D02*
X34559Y-21243D01*
X34559Y-21335D02*
X34559Y-21308D01*
X34595Y-21520D02*
X34559Y-21335D01*
X34600Y-21532D02*
X34595Y-21520D01*
X34900Y-21831D02*
X34600Y-21532D01*
X34912Y-21836D02*
X34900Y-21831D01*
X35254Y-21836D02*
X34912Y-21836D01*
X35920Y-22003D02*
X35254Y-21836D01*
X36089Y-22073D02*
X35920Y-22003D01*
X36509Y-22492D02*
X36089Y-22073D01*
X37101Y-23305D02*
X36509Y-22492D01*
X37262Y-23466D02*
X37101Y-23305D01*
X37349Y-23506D02*
X37262Y-23466D01*
X37376Y-23506D02*
X37349Y-23506D01*
X37441Y-23506D02*
X37376Y-23506D01*
X37726Y-23566D02*
X37441Y-23506D01*
X35290Y-35208D02*
X35500Y-35318D01*
X35290Y-35143D02*
X35290Y-35208D01*
X35290Y-35116D02*
X35290Y-35143D01*
X34757Y-33981D02*
X35290Y-35116D01*
X34719Y-33943D02*
X34757Y-33981D01*
X34692Y-33943D02*
X34719Y-33943D01*
X34627Y-33943D02*
X34692Y-33943D01*
X34592Y-33783D02*
X34627Y-33943D01*
X35059Y-21243D02*
X35024Y-21083D01*
X35059Y-21308D02*
X35059Y-21243D01*
X35059Y-21335D02*
X35059Y-21308D01*
X35097Y-21373D02*
X35059Y-21335D01*
X35328Y-21540D02*
X35097Y-21373D01*
X35988Y-21663D02*
X35328Y-21540D01*
X36282Y-21784D02*
X35988Y-21663D01*
X37349Y-22506D02*
X36282Y-21784D01*
X37376Y-22506D02*
X37349Y-22506D01*
X37441Y-22506D02*
X37376Y-22506D01*
X37726Y-22566D02*
X37441Y-22506D01*
X38011Y-22626D02*
X37726Y-22566D01*
X38076Y-22626D02*
X38011Y-22626D01*
X38103Y-22626D02*
X38076Y-22626D01*
X38190Y-22666D02*
X38103Y-22626D01*
X38351Y-22827D02*
X38190Y-22666D01*
X38673Y-23418D02*
X38351Y-22827D01*
X38691Y-23462D02*
X38673Y-23418D01*
X39031Y-24894D02*
X38691Y-23462D01*
X39553Y-27769D02*
X39031Y-24894D01*
X39553Y-27796D02*
X39553Y-27769D01*
X39553Y-27861D02*
X39553Y-27796D01*
X39763Y-27971D02*
X39553Y-27861D01*
X42125Y-22702D02*
X43113Y-23631D01*
X42125Y-22637D02*
X42125Y-22702D01*
X41841Y-22664D02*
X42125Y-22637D01*
X41803Y-22626D02*
X41841Y-22664D01*
X41776Y-22626D02*
X41803Y-22626D01*
X41711Y-22626D02*
X41776Y-22626D01*
X41426Y-22566D02*
X41711Y-22626D01*
X45859Y-31714D02*
X45944Y-31579D01*
X45794Y-31714D02*
X45859Y-31714D01*
X45767Y-31714D02*
X45794Y-31714D01*
X45147Y-32054D02*
X45767Y-31714D01*
X44920Y-32054D02*
X45147Y-32054D01*
X44620Y-32054D02*
X44920Y-32054D01*
X44459Y-31893D02*
X44620Y-32054D01*
X42804Y-29588D02*
X44459Y-31893D01*
X40479Y-26464D02*
X42804Y-29588D01*
X40461Y-26420D02*
X40479Y-26464D01*
X40461Y-25962D02*
X40461Y-26420D01*
X40461Y-25462D02*
X40461Y-25962D01*
X40801Y-23327D02*
X40461Y-25462D01*
X40962Y-23166D02*
X40801Y-23327D01*
X41049Y-23126D02*
X40962Y-23166D01*
X41076Y-23126D02*
X41049Y-23126D01*
X41141Y-23126D02*
X41076Y-23126D01*
X41426Y-23066D02*
X41141Y-23126D01*
X45836Y-31047D02*
X45726Y-30837D01*
X45836Y-31112D02*
X45836Y-31047D01*
X45836Y-31139D02*
X45836Y-31112D01*
X45859Y-31352D02*
X45836Y-31139D01*
X45859Y-31379D02*
X45859Y-31352D01*
X45859Y-31444D02*
X45859Y-31379D01*
X45944Y-31579D02*
X45859Y-31444D01*
X42243Y-24691D02*
X43113Y-24631D01*
X42178Y-24691D02*
X42243Y-24691D01*
X42151Y-24691D02*
X42178Y-24691D01*
X41803Y-25006D02*
X42151Y-24691D01*
X41776Y-25006D02*
X41803Y-25006D01*
X41711Y-25006D02*
X41776Y-25006D01*
X41426Y-25066D02*
X41711Y-25006D01*
X44866Y-30627D02*
X44976Y-30837D01*
X44801Y-30627D02*
X44866Y-30627D01*
X44774Y-30627D02*
X44801Y-30627D01*
X44736Y-30589D02*
X44774Y-30627D01*
X40801Y-26305D02*
X44736Y-30589D01*
X40801Y-26077D02*
X40801Y-26305D01*
X40801Y-25827D02*
X40801Y-26077D01*
X40962Y-25666D02*
X40801Y-25827D01*
X41049Y-25626D02*
X40962Y-25666D01*
X41076Y-25626D02*
X41049Y-25626D01*
X41141Y-25626D02*
X41076Y-25626D01*
X41426Y-25566D02*
X41141Y-25626D01*
X44930Y-31047D02*
X44976Y-30837D01*
X44930Y-31112D02*
X44930Y-31047D01*
X44930Y-31379D02*
X44930Y-31112D01*
X44930Y-31444D02*
X44930Y-31379D01*
X44884Y-31579D02*
X44930Y-31444D01*
X30316Y-27478D02*
X30281Y-27243D01*
X30316Y-27543D02*
X30316Y-27478D01*
X30316Y-27570D02*
X30316Y-27543D01*
X30354Y-27608D02*
X30316Y-27570D01*
X30567Y-27818D02*
X30354Y-27608D01*
X31767Y-27818D02*
X30567Y-27818D01*
X31995Y-27818D02*
X31767Y-27818D01*
X32419Y-27514D02*
X31995Y-27818D01*
X32446Y-27514D02*
X32419Y-27514D01*
X32511Y-27514D02*
X32446Y-27514D01*
X33041Y-27389D02*
X32511Y-27514D01*
X31246Y-27008D02*
X31281Y-27243D01*
X31246Y-26943D02*
X31246Y-27008D01*
X31246Y-26916D02*
X31246Y-26943D01*
X31226Y-26728D02*
X31246Y-26916D01*
X31219Y-26710D02*
X31226Y-26728D01*
X30914Y-26405D02*
X31219Y-26710D01*
X30896Y-26398D02*
X30914Y-26405D01*
X30473Y-26337D02*
X30896Y-26398D01*
X30019Y-26337D02*
X30473Y-26337D01*
X29979Y-26354D02*
X30019Y-26337D01*
X29657Y-26675D02*
X29979Y-26354D01*
X29635Y-26704D02*
X29657Y-26675D01*
X29626Y-26726D02*
X29635Y-26704D01*
X29626Y-27326D02*
X29626Y-26726D01*
X29626Y-27760D02*
X29626Y-27326D01*
X29657Y-28157D02*
X29626Y-27760D01*
X29657Y-28318D02*
X29657Y-28157D01*
X29657Y-28740D02*
X29657Y-28318D01*
X29618Y-29139D02*
X29657Y-28740D01*
X29618Y-29716D02*
X29618Y-29139D01*
X29882Y-31632D02*
X29618Y-29716D01*
X30531Y-33364D02*
X29882Y-31632D01*
X42351Y-34235D02*
X42146Y-34235D01*
X42416Y-34235D02*
X42351Y-34235D01*
X42526Y-34040D02*
X42416Y-34235D01*
X41372Y-35693D02*
X41907Y-35868D01*
X41307Y-35693D02*
X41372Y-35693D01*
X35115Y-35693D02*
X41307Y-35693D01*
X34719Y-35723D02*
X35115Y-35693D01*
X34692Y-35723D02*
X34719Y-35723D01*
X34627Y-35723D02*
X34692Y-35723D01*
X34592Y-35883D02*
X34627Y-35723D01*
X42442Y-36203D02*
X41907Y-35868D01*
X42442Y-36268D02*
X42442Y-36203D01*
X42442Y-36295D02*
X42442Y-36268D01*
X43146Y-38324D02*
X42442Y-36295D01*
X41534Y-32900D02*
X41485Y-33110D01*
X41534Y-32835D02*
X41534Y-32900D01*
X41534Y-32063D02*
X41534Y-32835D01*
X41534Y-31998D02*
X41534Y-32063D01*
X41584Y-31670D02*
X41534Y-31998D01*
X42146Y-35468D02*
X42146Y-34235D01*
X42146Y-35533D02*
X42146Y-35468D01*
X41907Y-35868D02*
X42146Y-35533D01*
X41595Y-33320D02*
X41485Y-33110D01*
X41595Y-33385D02*
X41595Y-33320D01*
X41595Y-33412D02*
X41595Y-33385D01*
X42146Y-34235D02*
X41595Y-33412D01*
X37563Y-26126D02*
X37726Y-26066D01*
X37563Y-26191D02*
X37563Y-26126D01*
X37563Y-27796D02*
X37563Y-26191D01*
X37563Y-27861D02*
X37563Y-27796D01*
X37401Y-27971D02*
X37563Y-27861D01*
X34059Y-21243D02*
X34024Y-21083D01*
X34059Y-21308D02*
X34059Y-21243D01*
X34059Y-21527D02*
X34059Y-21308D01*
X34069Y-21552D02*
X34059Y-21527D01*
X34379Y-21862D02*
X34069Y-21552D01*
X34732Y-22083D02*
X34379Y-21862D01*
X34853Y-22133D02*
X34732Y-22083D01*
X35195Y-22133D02*
X34853Y-22133D01*
X35853Y-22343D02*
X35195Y-22133D01*
X35897Y-22361D02*
X35853Y-22343D01*
X36221Y-22685D02*
X35897Y-22361D01*
X36239Y-22729D02*
X36221Y-22685D01*
X37103Y-24837D02*
X36239Y-22729D01*
X37103Y-25804D02*
X37103Y-24837D01*
X37263Y-25964D02*
X37103Y-25804D01*
X37349Y-26006D02*
X37263Y-25964D01*
X37376Y-26006D02*
X37349Y-26006D01*
X37441Y-26006D02*
X37376Y-26006D01*
X37726Y-26066D02*
X37441Y-26006D01*
X42243Y-24071D02*
X43113Y-24131D01*
X42178Y-24071D02*
X42243Y-24071D01*
X42151Y-24071D02*
X42178Y-24071D01*
X42113Y-24033D02*
X42151Y-24071D01*
X41841Y-23664D02*
X42113Y-24033D01*
X41803Y-23626D02*
X41841Y-23664D01*
X41776Y-23626D02*
X41803Y-23626D01*
X41711Y-23626D02*
X41776Y-23626D01*
X41426Y-23566D02*
X41711Y-23626D01*
X42243Y-26098D02*
X43113Y-26131D01*
X42178Y-26098D02*
X42243Y-26098D01*
X41776Y-26098D02*
X42178Y-26098D01*
X41711Y-26098D02*
X41776Y-26098D01*
X41426Y-26066D02*
X41711Y-26098D01*
X38011Y-25126D02*
X37726Y-25066D01*
X38076Y-25126D02*
X38011Y-25126D01*
X38103Y-25126D02*
X38076Y-25126D01*
X38190Y-25166D02*
X38103Y-25126D01*
X38351Y-25327D02*
X38190Y-25166D01*
X38351Y-27796D02*
X38351Y-25327D01*
X38351Y-27861D02*
X38351Y-27796D01*
X38188Y-27971D02*
X38351Y-27861D01*
X33559Y-21243D02*
X33524Y-21083D01*
X33559Y-21308D02*
X33559Y-21243D01*
X33559Y-21527D02*
X33559Y-21308D01*
X33569Y-21552D02*
X33559Y-21527D01*
X33738Y-21773D02*
X33569Y-21552D01*
X34158Y-22193D02*
X33738Y-21773D01*
X34327Y-22263D02*
X34158Y-22193D01*
X34794Y-22430D02*
X34327Y-22263D01*
X35136Y-22430D02*
X34794Y-22430D01*
X35147Y-22434D02*
X35136Y-22430D01*
X35738Y-22683D02*
X35147Y-22434D01*
X35899Y-22844D02*
X35738Y-22683D01*
X36696Y-24737D02*
X35899Y-22844D01*
X36765Y-24904D02*
X36696Y-24737D01*
X36765Y-26169D02*
X36765Y-24904D01*
X36861Y-28191D02*
X36765Y-26169D01*
X37016Y-28346D02*
X36861Y-28191D01*
X37593Y-28346D02*
X37016Y-28346D01*
X37759Y-28346D02*
X37593Y-28346D01*
X37786Y-28346D02*
X37759Y-28346D01*
X37940Y-28211D02*
X37786Y-28346D01*
X37978Y-28173D02*
X37940Y-28211D01*
X37978Y-28146D02*
X37978Y-28173D01*
X37978Y-28081D02*
X37978Y-28146D01*
X38188Y-27971D02*
X37978Y-28081D01*
X45905Y-29562D02*
X45795Y-29352D01*
X45970Y-29562D02*
X45905Y-29562D01*
X45997Y-29562D02*
X45970Y-29562D01*
X46035Y-29600D02*
X45997Y-29562D01*
X47620Y-31378D02*
X46035Y-29600D01*
X47620Y-31405D02*
X47620Y-31378D01*
X47620Y-31470D02*
X47620Y-31405D01*
X47705Y-31605D02*
X47620Y-31470D01*
X43983Y-25191D02*
X43113Y-25131D01*
X44048Y-25191D02*
X43983Y-25191D01*
X44075Y-25191D02*
X44048Y-25191D01*
X44162Y-25231D02*
X44075Y-25191D01*
X44323Y-25392D02*
X44162Y-25231D01*
X45685Y-29050D02*
X44323Y-25392D01*
X45685Y-29077D02*
X45685Y-29050D01*
X45685Y-29142D02*
X45685Y-29077D01*
X45795Y-29352D02*
X45685Y-29142D01*
X43113Y-25191D02*
X43113Y-25131D01*
X43113Y-25256D02*
X43113Y-25191D01*
X43113Y-25506D02*
X43113Y-25256D01*
X43113Y-25571D02*
X43113Y-25506D01*
X43113Y-25631D02*
X43113Y-25571D01*
X31816Y-24619D02*
X31781Y-24643D01*
X31881Y-24619D02*
X31816Y-24619D01*
X32400Y-24619D02*
X31881Y-24619D01*
X32465Y-24619D02*
X32400Y-24619D01*
X32675Y-24595D02*
X32465Y-24619D01*
X32885Y-24625D02*
X32675Y-24595D01*
X32950Y-24625D02*
X32885Y-24625D01*
X33497Y-24625D02*
X32950Y-24625D01*
X33562Y-24625D02*
X33497Y-24625D01*
X33797Y-24535D02*
X33562Y-24625D01*
X33015Y-23343D02*
X33024Y-23183D01*
X33015Y-23408D02*
X33015Y-23343D01*
X33015Y-23696D02*
X33015Y-23408D01*
X32977Y-23735D02*
X33015Y-23696D01*
X32950Y-23735D02*
X32977Y-23735D01*
X32885Y-23735D02*
X32950Y-23735D01*
X32675Y-23845D02*
X32885Y-23735D01*
X33571Y-25264D02*
X33041Y-25389D01*
X33636Y-25264D02*
X33571Y-25264D01*
X33663Y-25264D02*
X33636Y-25264D01*
X34210Y-25210D02*
X33663Y-25264D01*
X34372Y-25048D02*
X34210Y-25210D01*
X34489Y-23627D02*
X34372Y-25048D01*
X34489Y-23408D02*
X34489Y-23627D01*
X34489Y-23343D02*
X34489Y-23408D01*
X34524Y-23183D02*
X34489Y-23343D01*
X31316Y-24878D02*
X31281Y-24643D01*
X31316Y-24943D02*
X31316Y-24878D01*
X31316Y-24970D02*
X31316Y-24943D01*
X31354Y-25008D02*
X31316Y-24970D01*
X31575Y-25200D02*
X31354Y-25008D01*
X31637Y-25206D02*
X31575Y-25200D01*
X31704Y-25213D02*
X31637Y-25206D01*
X31767Y-25218D02*
X31704Y-25213D01*
X32419Y-25264D02*
X31767Y-25218D01*
X32446Y-25264D02*
X32419Y-25264D01*
X32511Y-25264D02*
X32446Y-25264D01*
X33041Y-25389D02*
X32511Y-25264D01*
X46196Y-35276D02*
X46431Y-35611D01*
X46196Y-35211D02*
X46196Y-35276D01*
X46196Y-35184D02*
X46196Y-35211D01*
X46158Y-35146D02*
X46196Y-35184D01*
X45070Y-34074D02*
X46158Y-35146D01*
X45044Y-34074D02*
X45070Y-34074D01*
X44979Y-34074D02*
X45044Y-34074D01*
X44894Y-33939D02*
X44979Y-34074D01*
X46570Y-35276D02*
X46431Y-35611D01*
X46570Y-35211D02*
X46570Y-35276D01*
X46570Y-34165D02*
X46570Y-35211D01*
X46570Y-34100D02*
X46570Y-34165D01*
X46655Y-33965D02*
X46570Y-34100D01*
X30816Y-24878D02*
X30781Y-24643D01*
X30816Y-24943D02*
X30816Y-24878D01*
X30836Y-25158D02*
X30816Y-24943D01*
X30843Y-25176D02*
X30836Y-25158D01*
X31148Y-25481D02*
X30843Y-25176D01*
X31839Y-25769D02*
X31148Y-25481D01*
X32419Y-26264D02*
X31839Y-25769D01*
X32446Y-26264D02*
X32419Y-26264D01*
X32511Y-26264D02*
X32446Y-26264D01*
X33041Y-26389D02*
X32511Y-26264D01*
X33989Y-23343D02*
X34024Y-23183D01*
X33989Y-23408D02*
X33989Y-23343D01*
X33989Y-23435D02*
X33989Y-23408D01*
X33951Y-23473D02*
X33989Y-23435D01*
X33738Y-23683D02*
X33951Y-23473D01*
X33453Y-23872D02*
X33738Y-23683D01*
X33407Y-23918D02*
X33453Y-23872D01*
X33157Y-24167D02*
X33407Y-23918D01*
X33060Y-24220D02*
X33157Y-24167D01*
X33033Y-24220D02*
X33060Y-24220D01*
X32868Y-24220D02*
X33033Y-24220D01*
X32291Y-24220D02*
X32868Y-24220D01*
X31995Y-24068D02*
X32291Y-24220D01*
X31295Y-24068D02*
X31995Y-24068D01*
X31067Y-24068D02*
X31295Y-24068D01*
X30854Y-24278D02*
X31067Y-24068D01*
X30816Y-24316D02*
X30854Y-24278D01*
X30816Y-24343D02*
X30816Y-24316D01*
X30816Y-24408D02*
X30816Y-24343D01*
X30781Y-24643D02*
X30816Y-24408D01*
X42345Y-33110D02*
X42235Y-33110D01*
X42410Y-33110D02*
X42345Y-33110D01*
X42771Y-33110D02*
X42410Y-33110D01*
X42836Y-33110D02*
X42771Y-33110D01*
X42946Y-33110D02*
X42836Y-33110D01*
X42303Y-32900D02*
X42235Y-33110D01*
X42303Y-32835D02*
X42303Y-32900D01*
X42303Y-32063D02*
X42303Y-32835D01*
X42303Y-31998D02*
X42303Y-32063D01*
X42372Y-31670D02*
X42303Y-31998D01*
X43806Y-33320D02*
X43696Y-33110D01*
X43871Y-33320D02*
X43806Y-33320D01*
X43897Y-33320D02*
X43871Y-33320D01*
X43936Y-33358D02*
X43897Y-33320D01*
X44896Y-35184D02*
X43936Y-33358D01*
X44896Y-35211D02*
X44896Y-35184D01*
X44896Y-35276D02*
X44896Y-35211D01*
X45131Y-35611D02*
X44896Y-35276D01*
X43586Y-32900D02*
X43696Y-33110D01*
X43586Y-32835D02*
X43586Y-32900D01*
X43586Y-32622D02*
X43586Y-32835D01*
X43180Y-31113D02*
X43586Y-32622D01*
X43163Y-31070D02*
X43180Y-31113D01*
X42840Y-30747D02*
X43163Y-31070D01*
X42502Y-30554D02*
X42840Y-30747D01*
X42464Y-30516D02*
X42502Y-30554D01*
X42464Y-30489D02*
X42464Y-30516D01*
X42464Y-30424D02*
X42464Y-30489D01*
X41978Y-30096D02*
X42464Y-30424D01*
X37585Y-28831D02*
X37401Y-28721D01*
X37585Y-28896D02*
X37585Y-28831D01*
X37585Y-29764D02*
X37585Y-28896D01*
X37585Y-29829D02*
X37585Y-29764D01*
X37795Y-29939D02*
X37585Y-29829D01*
X37978Y-28721D02*
X38188Y-28721D01*
X37913Y-28721D02*
X37978Y-28721D01*
X37676Y-28721D02*
X37913Y-28721D01*
X37611Y-28721D02*
X37676Y-28721D01*
X37401Y-28721D02*
X37611Y-28721D01*
X39763Y-28831D02*
X39763Y-28721D01*
X39763Y-28896D02*
X39763Y-28831D01*
X39763Y-29764D02*
X39763Y-28896D01*
X39763Y-29829D02*
X39763Y-29764D01*
X39763Y-29939D02*
X39763Y-29829D01*
X39553Y-28721D02*
X39763Y-28721D01*
X39488Y-28721D02*
X39553Y-28721D01*
X39251Y-28721D02*
X39488Y-28721D01*
X39186Y-28721D02*
X39251Y-28721D01*
X38976Y-28721D02*
X39186Y-28721D01*
X35751Y-26264D02*
X35221Y-26389D01*
X35816Y-26264D02*
X35751Y-26264D01*
X35843Y-26264D02*
X35816Y-26264D01*
X35881Y-26226D02*
X35843Y-26264D01*
X36089Y-25692D02*
X35881Y-26226D01*
X36089Y-25466D02*
X36089Y-25692D01*
X36089Y-25086D02*
X36089Y-25466D01*
X35929Y-24926D02*
X36089Y-25086D01*
X35397Y-24870D02*
X35929Y-24926D01*
X35332Y-24870D02*
X35397Y-24870D01*
X35097Y-24535D02*
X35332Y-24870D01*
X33911Y-27085D02*
X33775Y-26946D01*
X33911Y-27465D02*
X33911Y-27085D01*
X33911Y-27693D02*
X33911Y-27465D01*
X33101Y-30054D02*
X33911Y-27693D01*
X33101Y-30081D02*
X33101Y-30054D01*
X33101Y-30146D02*
X33101Y-30081D01*
X32566Y-30481D02*
X33101Y-30146D01*
X31939Y-30146D02*
X30531Y-29427D01*
X31966Y-30146D02*
X31939Y-30146D01*
X32031Y-30146D02*
X31966Y-30146D01*
X32566Y-30481D02*
X32031Y-30146D01*
X37511Y-32044D02*
X38511Y-32649D01*
X37446Y-32044D02*
X37511Y-32044D01*
X36468Y-31717D02*
X37446Y-32044D01*
X36430Y-31679D02*
X36468Y-31717D01*
X36430Y-31652D02*
X36430Y-31679D01*
X36430Y-31587D02*
X36430Y-31652D01*
X36220Y-31477D02*
X36430Y-31587D01*
X33750Y-26924D02*
X33775Y-26946D01*
X32397Y-26854D02*
X33750Y-26924D01*
X32336Y-26844D02*
X32397Y-26854D01*
X31608Y-26115D02*
X32336Y-26844D01*
X31260Y-25888D02*
X31608Y-26115D01*
X30975Y-25739D02*
X31260Y-25888D01*
X30637Y-25497D02*
X30975Y-25739D01*
X30327Y-25187D02*
X30637Y-25497D01*
X30316Y-25162D02*
X30327Y-25187D01*
X30316Y-24943D02*
X30316Y-25162D01*
X30316Y-24878D02*
X30316Y-24943D01*
X30281Y-24643D02*
X30316Y-24878D01*
X30494Y-23705D02*
X30604Y-23495D01*
X30494Y-23770D02*
X30494Y-23705D01*
X30494Y-23796D02*
X30494Y-23770D01*
X30316Y-24316D02*
X30494Y-23796D01*
X30316Y-24343D02*
X30316Y-24316D01*
X30316Y-24408D02*
X30316Y-24343D01*
X30281Y-24643D02*
X30316Y-24408D01*
X33068Y-36552D02*
X32958Y-36762D01*
X33133Y-36552D02*
X33068Y-36552D01*
X33160Y-36552D02*
X33133Y-36552D01*
X33198Y-36514D02*
X33160Y-36552D01*
X33557Y-36135D02*
X33198Y-36514D01*
X33557Y-36108D02*
X33557Y-36135D01*
X33557Y-36043D02*
X33557Y-36108D01*
X33592Y-35883D02*
X33557Y-36043D01*
X32958Y-36972D02*
X32958Y-36762D01*
X32958Y-37037D02*
X32958Y-36972D01*
X32958Y-37668D02*
X32958Y-37037D01*
X32958Y-37733D02*
X32958Y-37668D01*
X32958Y-37943D02*
X32958Y-37733D01*
X30714Y-23285D02*
X30604Y-23495D01*
X30779Y-23285D02*
X30714Y-23285D01*
X30806Y-23285D02*
X30779Y-23285D01*
X30844Y-23246D02*
X30806Y-23285D01*
X32359Y-21281D02*
X30844Y-23246D01*
X32397Y-21243D02*
X32359Y-21281D01*
X32424Y-21243D02*
X32397Y-21243D01*
X32489Y-21243D02*
X32424Y-21243D01*
X32524Y-21083D02*
X32489Y-21243D01*
X32031Y-30816D02*
X32566Y-30481D01*
X32031Y-30881D02*
X32031Y-30816D01*
X32031Y-30908D02*
X32031Y-30881D01*
X31835Y-34169D02*
X32031Y-30908D01*
X31758Y-36373D02*
X31835Y-34169D01*
X31758Y-38104D02*
X31758Y-36373D01*
X31758Y-38332D02*
X31758Y-38104D01*
X31919Y-38493D02*
X31758Y-38332D01*
X32269Y-38493D02*
X31919Y-38493D01*
X32497Y-38493D02*
X32269Y-38493D01*
X32810Y-38283D02*
X32497Y-38493D01*
X32848Y-38245D02*
X32810Y-38283D01*
X32848Y-38218D02*
X32848Y-38245D01*
X32848Y-38153D02*
X32848Y-38218D01*
X32958Y-37943D02*
X32848Y-38153D01*
X33101Y-30816D02*
X32566Y-30481D01*
X33166Y-30816D02*
X33101Y-30816D01*
X33192Y-30816D02*
X33166Y-30816D01*
X33852Y-31156D02*
X33192Y-30816D01*
X35918Y-31367D02*
X33852Y-31156D01*
X35945Y-31367D02*
X35918Y-31367D01*
X36010Y-31367D02*
X35945Y-31367D01*
X36220Y-31477D02*
X36010Y-31367D01*
X34351Y-26085D02*
X33775Y-26946D01*
X34691Y-25606D02*
X34351Y-26085D01*
X34691Y-25579D02*
X34691Y-25606D01*
X34691Y-25514D02*
X34691Y-25579D01*
X35221Y-25389D02*
X34691Y-25514D01*
X43276Y-34040D02*
X43700Y-34040D01*
X43907Y-34247D02*
X43907Y-35868D01*
X43700Y-34040D02*
X43907Y-34247D01*
X33024Y-21083D02*
X33024Y-21904D01*
X33024Y-21904D02*
X33806Y-22686D01*
X30314Y-21259D02*
X30720Y-21259D01*
X33024Y-20754D02*
X33024Y-21083D01*
X32770Y-20500D02*
X33024Y-20754D01*
X31480Y-20500D02*
X32770Y-20500D01*
X30720Y-21259D02*
X31480Y-20500D01*
X33559Y-23023D02*
X33524Y-23183D01*
X33806Y-22686D02*
X33597Y-22893D01*
X33597Y-22893D02*
X33559Y-22931D01*
X33559Y-22931D02*
X33559Y-22958D01*
X33559Y-22958D02*
X33559Y-23023D01*
X33810Y-22683D02*
X33806Y-22686D01*
X35024Y-23183D02*
X34989Y-23023D01*
X34989Y-23023D02*
X34989Y-22958D01*
X34989Y-22958D02*
X34989Y-22931D01*
X34989Y-22931D02*
X34951Y-22893D01*
X34951Y-22893D02*
X34720Y-22726D01*
X34720Y-22726D02*
X34238Y-22683D01*
X34238Y-22683D02*
X34038Y-22683D01*
X34038Y-22683D02*
X33810Y-22683D01*
X29795Y-26079D02*
X30064Y-25920D01*
X29383Y-26492D02*
X29795Y-26079D01*
X29317Y-26651D02*
X29383Y-26492D01*
X29317Y-29776D02*
X29317Y-26651D01*
X29542Y-31699D02*
X29317Y-29776D01*
X29882Y-33600D02*
X29542Y-31699D01*
X30531Y-35333D02*
X29882Y-33600D01*
X34270Y-38713D02*
X34630Y-38428D01*
X34205Y-38713D02*
X34270Y-38713D01*
X34178Y-38713D02*
X34205Y-38713D01*
X33012Y-38833D02*
X34178Y-38713D01*
X32554Y-38833D02*
X33012Y-38833D01*
X31804Y-38833D02*
X32554Y-38833D01*
X30314Y-38582D02*
X31804Y-38833D01*
X48130Y-31919D02*
X47385Y-33421D01*
X48130Y-31691D02*
X48130Y-31919D01*
X48130Y-31183D02*
X48130Y-31691D01*
X48118Y-31154D02*
X48130Y-31183D01*
X46489Y-29406D02*
X48118Y-31154D01*
X46402Y-29319D02*
X46489Y-29406D01*
X46363Y-29223D02*
X46402Y-29319D01*
X45275Y-21259D02*
X46363Y-29223D01*
X35059Y-23183D02*
X35024Y-23183D01*
X35124Y-23183D02*
X35059Y-23183D01*
X35424Y-23183D02*
X35124Y-23183D01*
X35489Y-23183D02*
X35424Y-23183D01*
X35524Y-23183D02*
X35489Y-23183D01*
X38005Y-30689D02*
X37795Y-30689D01*
X38070Y-30689D02*
X38005Y-30689D01*
X39488Y-30689D02*
X38070Y-30689D01*
X39553Y-30689D02*
X39488Y-30689D01*
X39763Y-30689D02*
X39553Y-30689D01*
X29964Y-23285D02*
X29854Y-23495D01*
X29964Y-23220D02*
X29964Y-23285D01*
X29964Y-23193D02*
X29964Y-23220D01*
X30314Y-21259D02*
X29964Y-23193D01*
X36430Y-30708D02*
X36220Y-30727D01*
X36495Y-30708D02*
X36430Y-30708D01*
X37520Y-30708D02*
X36495Y-30708D01*
X37585Y-30708D02*
X37520Y-30708D01*
X37795Y-30689D02*
X37585Y-30708D01*
X39851Y-30799D02*
X39763Y-30689D01*
X39851Y-30864D02*
X39851Y-30799D01*
X39851Y-33433D02*
X39851Y-30864D01*
X39690Y-33594D02*
X39851Y-33433D01*
X39462Y-33594D02*
X39690Y-33594D01*
X37332Y-33594D02*
X39462Y-33594D01*
X34467Y-32943D02*
X37332Y-33594D01*
X34353Y-32943D02*
X34467Y-32943D01*
X34288Y-32943D02*
X34353Y-32943D01*
X34178Y-32943D02*
X34288Y-32943D01*
X34057Y-33943D02*
X34092Y-33783D01*
X34057Y-34008D02*
X34057Y-33943D01*
X34057Y-34358D02*
X34057Y-34008D01*
X34057Y-34423D02*
X34057Y-34358D01*
X33842Y-34833D02*
X34057Y-34423D01*
X31746Y-27008D02*
X31781Y-27243D01*
X31746Y-26943D02*
X31746Y-27008D01*
X31746Y-26724D02*
X31746Y-26943D01*
X31736Y-26698D02*
X31746Y-26724D01*
X31426Y-26388D02*
X31736Y-26698D01*
X31149Y-26178D02*
X31426Y-26388D01*
X30915Y-26094D02*
X31149Y-26178D01*
X30606Y-26023D02*
X30915Y-26094D01*
X30478Y-25988D02*
X30606Y-26023D01*
X30064Y-25920D02*
X30478Y-25988D01*
X47368Y-38487D02*
X45055Y-38040D01*
X35559Y-23343D02*
X35524Y-23183D01*
X35559Y-23408D02*
X35559Y-23343D01*
X35559Y-23435D02*
X35559Y-23408D01*
X36409Y-24929D02*
X35559Y-23435D01*
X36427Y-24971D02*
X36409Y-24929D01*
X36427Y-25971D02*
X36427Y-24971D01*
X36427Y-26428D02*
X36427Y-25971D01*
X36409Y-26470D02*
X36427Y-26428D01*
X35751Y-27172D02*
X36409Y-26470D01*
X35751Y-27199D02*
X35751Y-27172D01*
X35751Y-27264D02*
X35751Y-27199D01*
X35221Y-27389D02*
X35751Y-27264D01*
X43321Y-33830D02*
X43276Y-34040D01*
X43321Y-33765D02*
X43321Y-33830D01*
X43321Y-32725D02*
X43321Y-33765D01*
X42844Y-31227D02*
X43321Y-32725D01*
X42810Y-31176D02*
X42844Y-31227D01*
X42669Y-31035D02*
X42810Y-31176D01*
X42313Y-31035D02*
X42669Y-31035D01*
X42295Y-31028D02*
X42313Y-31035D01*
X42283Y-31016D02*
X42295Y-31028D01*
X40065Y-30799D02*
X42283Y-31016D01*
X40038Y-30799D02*
X40065Y-30799D01*
X39973Y-30799D02*
X40038Y-30799D01*
X39763Y-30689D02*
X39973Y-30799D01*
X30531Y-35333D02*
X30314Y-38582D01*
X46391Y-33490D02*
X47385Y-33421D01*
X46067Y-33674D02*
X46391Y-33490D01*
X46029Y-33712D02*
X46067Y-33674D01*
X46029Y-33739D02*
X46029Y-33712D01*
X46029Y-33804D02*
X46029Y-33739D01*
X45944Y-33939D02*
X46029Y-33804D01*
X42510Y-39464D02*
X40707Y-38309D01*
X42790Y-39580D02*
X42510Y-39464D01*
X43503Y-39580D02*
X42790Y-39580D01*
X43782Y-39464D02*
X43503Y-39580D01*
X44287Y-38960D02*
X43782Y-39464D01*
X45055Y-38040D02*
X44287Y-38960D01*
X32633Y-34218D02*
X32978Y-34213D01*
X32595Y-34256D02*
X32633Y-34218D01*
X32595Y-34283D02*
X32595Y-34256D01*
X32595Y-34348D02*
X32595Y-34283D01*
X32385Y-34458D02*
X32595Y-34348D01*
X33057Y-34035D02*
X32978Y-34213D01*
X33057Y-34008D02*
X33057Y-34035D01*
X33057Y-33943D02*
X33057Y-34008D01*
X33092Y-33783D02*
X33057Y-33943D01*
X47620Y-34100D02*
X47705Y-33965D01*
X47620Y-34165D02*
X47620Y-34100D01*
X47620Y-34192D02*
X47620Y-34165D01*
X47368Y-38487D02*
X47620Y-34192D01*
X34127Y-33153D02*
X34178Y-32943D01*
X34127Y-33218D02*
X34127Y-33153D01*
X34127Y-33558D02*
X34127Y-33218D01*
X34127Y-33623D02*
X34127Y-33558D01*
X34092Y-33783D02*
X34127Y-33623D01*
X29906Y-23705D02*
X29854Y-23495D01*
X29906Y-23770D02*
X29906Y-23705D01*
X29906Y-25140D02*
X29906Y-23770D01*
X30064Y-25920D02*
X29906Y-25140D01*
X34990Y-38309D02*
X34630Y-38428D01*
X35055Y-38309D02*
X34990Y-38309D01*
X40707Y-38309D02*
X35055Y-38309D01*
X43386Y-35533D02*
X43386Y-35468D01*
X43907Y-35868D02*
X43386Y-35533D01*
X34893Y-27514D02*
X35221Y-27389D01*
X34893Y-27579D02*
X34893Y-27514D01*
X34893Y-30081D02*
X34893Y-27579D01*
X34893Y-30146D02*
X34893Y-30081D01*
X34566Y-30481D02*
X34893Y-30146D01*
X36010Y-30617D02*
X36220Y-30727D01*
X35945Y-30617D02*
X36010Y-30617D01*
X35166Y-30617D02*
X35945Y-30617D01*
X35101Y-30617D02*
X35166Y-30617D01*
X34566Y-30481D02*
X35101Y-30617D01*
X33257Y-34423D02*
X33842Y-34833D01*
X33192Y-34423D02*
X33257Y-34423D01*
X33165Y-34423D02*
X33192Y-34423D01*
X33127Y-34385D02*
X33165Y-34423D01*
X32978Y-34213D02*
X33127Y-34385D01*
X44442Y-36295D02*
X45055Y-38040D01*
X43907Y-35868D02*
X44442Y-36203D01*
X44442Y-36203D02*
X44442Y-36268D01*
X44442Y-36268D02*
X44442Y-36295D01*
X47647Y-33727D02*
X47385Y-33421D01*
X47647Y-33765D02*
X47647Y-33727D01*
X47647Y-33830D02*
X47647Y-33765D01*
X47705Y-33965D02*
X47647Y-33830D01*
G54D10*
G36*
X34150Y-33833D02*
X34142Y-33833D01*
X34142Y-33841D01*
X34042Y-33841D01*
X34042Y-33833D01*
X34035Y-33833D01*
X34035Y-33733D01*
X34042Y-33733D01*
X34042Y-33725D01*
X34142Y-33725D01*
X34142Y-33733D01*
X34150Y-33733D01*
X34150Y-33833D01*
X34150Y-33833D01*
G37*
G54D33*
X34150Y-33833D02*
X34142Y-33833D01*
X34142Y-33841D01*
X34042Y-33841D01*
X34042Y-33833D01*
X34035Y-33833D01*
X34035Y-33733D01*
X34042Y-33733D01*
X34042Y-33725D01*
X34142Y-33725D01*
X34142Y-33733D01*
X34150Y-33733D01*
X34150Y-33833D01*
G54D10*
G36*
X48599Y-39544D02*
X48499Y-39544D01*
X48499Y-38707D01*
X48497Y-38257D01*
X48329Y-37850D01*
X48191Y-37764D01*
X48191Y-32529D01*
X48191Y-31760D01*
X48055Y-31760D01*
X48055Y-31365D01*
X48025Y-31291D01*
X47968Y-31235D01*
X47895Y-31205D01*
X47819Y-31205D01*
X47818Y-31202D01*
X47808Y-31191D01*
X47807Y-31190D01*
X47807Y-31190D01*
X46406Y-29617D01*
X46406Y-21479D01*
X46404Y-21030D01*
X46236Y-20623D01*
X46080Y-20525D01*
X45346Y-21259D01*
X46080Y-21994D01*
X46236Y-21895D01*
X46406Y-21479D01*
X46406Y-29617D01*
X46233Y-29423D01*
X46227Y-29419D01*
X46223Y-29412D01*
X46184Y-29374D01*
X46170Y-29365D01*
X46170Y-29037D01*
X46140Y-28963D01*
X46084Y-28907D01*
X46010Y-28877D01*
X46009Y-28877D01*
X46009Y-22064D01*
X45275Y-21330D01*
X45204Y-21401D01*
X45204Y-21259D01*
X44470Y-20525D01*
X44314Y-20623D01*
X44144Y-21039D01*
X44146Y-21489D01*
X44314Y-21895D01*
X44470Y-21994D01*
X45204Y-21259D01*
X45204Y-21401D01*
X44541Y-22064D01*
X44639Y-22220D01*
X45055Y-22390D01*
X45505Y-22388D01*
X45911Y-22220D01*
X46009Y-22064D01*
X46009Y-28877D01*
X45931Y-28876D01*
X45902Y-28876D01*
X44572Y-25300D01*
X44569Y-25295D01*
X44568Y-25291D01*
X44542Y-25252D01*
X44517Y-25212D01*
X44513Y-25209D01*
X44511Y-25205D01*
X44349Y-25044D01*
X44309Y-25017D01*
X44273Y-24990D01*
X44248Y-24979D01*
X44248Y-24966D01*
X44218Y-24893D01*
X44206Y-24881D01*
X44218Y-24869D01*
X44248Y-24796D01*
X44248Y-24716D01*
X44248Y-24466D01*
X44218Y-24393D01*
X44206Y-24381D01*
X44218Y-24369D01*
X44248Y-24296D01*
X44248Y-24216D01*
X44248Y-23966D01*
X44218Y-23893D01*
X44206Y-23881D01*
X44218Y-23869D01*
X44248Y-23796D01*
X44248Y-23716D01*
X44248Y-23466D01*
X44218Y-23393D01*
X44162Y-23337D01*
X44088Y-23306D01*
X44008Y-23306D01*
X43465Y-23306D01*
X43465Y-21800D01*
X43444Y-21698D01*
X43387Y-21612D01*
X43387Y-21612D01*
X43187Y-21412D01*
X43101Y-21355D01*
X43000Y-21334D01*
X42898Y-21355D01*
X42812Y-21412D01*
X42755Y-21498D01*
X42745Y-21545D01*
X42698Y-21555D01*
X42612Y-21612D01*
X42612Y-21612D01*
X42412Y-21812D01*
X42355Y-21898D01*
X42334Y-22000D01*
X42335Y-22000D01*
X42335Y-22200D01*
X42355Y-22301D01*
X42412Y-22387D01*
X42498Y-22444D01*
X42600Y-22465D01*
X42799Y-22465D01*
X42800Y-22465D01*
X42800Y-22465D01*
X42901Y-22444D01*
X42987Y-22387D01*
X43187Y-22187D01*
X43187Y-22187D01*
X43187Y-22187D01*
X43244Y-22101D01*
X43254Y-22054D01*
X43301Y-22044D01*
X43387Y-21987D01*
X43444Y-21901D01*
X43465Y-21800D01*
X43465Y-23306D01*
X43155Y-23306D01*
X42379Y-22576D01*
X42378Y-22574D01*
X42370Y-22536D01*
X42363Y-22525D01*
X42360Y-22513D01*
X42334Y-22482D01*
X42313Y-22450D01*
X42303Y-22443D01*
X42294Y-22433D01*
X42258Y-22413D01*
X42227Y-22392D01*
X42215Y-22390D01*
X42203Y-22384D01*
X42162Y-22380D01*
X42125Y-22372D01*
X42114Y-22375D01*
X42101Y-22373D01*
X41969Y-22386D01*
X41945Y-22328D01*
X41889Y-22272D01*
X41816Y-22241D01*
X41736Y-22241D01*
X41036Y-22241D01*
X40963Y-22271D01*
X40906Y-22328D01*
X40876Y-22401D01*
X40876Y-22481D01*
X40876Y-22731D01*
X40906Y-22804D01*
X40918Y-22816D01*
X40906Y-22828D01*
X40876Y-22901D01*
X40876Y-22914D01*
X40851Y-22925D01*
X40813Y-22953D01*
X40774Y-22979D01*
X40613Y-23140D01*
X40591Y-23174D01*
X40577Y-23188D01*
X40572Y-23201D01*
X40556Y-23226D01*
X40548Y-23267D01*
X40541Y-23285D01*
X40199Y-25420D01*
X40200Y-25441D01*
X40196Y-25462D01*
X40196Y-25962D01*
X40196Y-26420D01*
X40216Y-26522D01*
X40234Y-26565D01*
X40252Y-26593D01*
X40266Y-26622D01*
X41814Y-28698D01*
X40955Y-28698D01*
X40955Y-29676D01*
X41227Y-29676D01*
X41227Y-29742D01*
X41227Y-30529D01*
X41257Y-30602D01*
X41313Y-30658D01*
X41387Y-30689D01*
X41466Y-30689D01*
X42267Y-30689D01*
X42276Y-30703D01*
X42314Y-30741D01*
X42344Y-30761D01*
X42370Y-30784D01*
X42678Y-30960D01*
X42933Y-31216D01*
X43321Y-32660D01*
X43321Y-32795D01*
X43290Y-32721D01*
X43234Y-32665D01*
X43160Y-32635D01*
X43081Y-32635D01*
X42731Y-32635D01*
X42657Y-32665D01*
X42601Y-32721D01*
X42590Y-32748D01*
X42579Y-32721D01*
X42568Y-32710D01*
X42568Y-32263D01*
X42608Y-32263D01*
X42682Y-32233D01*
X42738Y-32176D01*
X42769Y-32103D01*
X42769Y-32023D01*
X42769Y-31236D01*
X42738Y-31163D01*
X42682Y-31107D01*
X42609Y-31076D01*
X42529Y-31076D01*
X42135Y-31076D01*
X42062Y-31106D01*
X42005Y-31163D01*
X41978Y-31229D01*
X41950Y-31163D01*
X41894Y-31107D01*
X41821Y-31076D01*
X41741Y-31076D01*
X41347Y-31076D01*
X41274Y-31106D01*
X41217Y-31163D01*
X41187Y-31236D01*
X41187Y-31316D01*
X41187Y-32103D01*
X41217Y-32176D01*
X41269Y-32228D01*
X41269Y-32635D01*
X41197Y-32665D01*
X41140Y-32721D01*
X41110Y-32795D01*
X41110Y-32874D01*
X41110Y-33424D01*
X41140Y-33498D01*
X41196Y-33554D01*
X41270Y-33585D01*
X41349Y-33585D01*
X41392Y-33585D01*
X41432Y-33645D01*
X40604Y-33645D01*
X40604Y-34623D01*
X41881Y-34623D01*
X41881Y-35268D01*
X41268Y-35268D01*
X41194Y-35298D01*
X41138Y-35355D01*
X41107Y-35428D01*
X40288Y-35428D01*
X40288Y-30914D01*
X40288Y-30465D01*
X40250Y-30373D01*
X40180Y-30303D01*
X40143Y-30287D01*
X40151Y-30284D01*
X40208Y-30228D01*
X40238Y-30154D01*
X40238Y-30075D01*
X40238Y-29725D01*
X40208Y-29651D01*
X40152Y-29595D01*
X40078Y-29564D01*
X40028Y-29564D01*
X40028Y-29096D01*
X40078Y-29096D01*
X40151Y-29066D01*
X40208Y-29009D01*
X40238Y-28936D01*
X40238Y-28856D01*
X40238Y-28506D01*
X40208Y-28433D01*
X40152Y-28377D01*
X40078Y-28346D01*
X40078Y-28346D01*
X40151Y-28316D01*
X40208Y-28259D01*
X40238Y-28186D01*
X40238Y-28106D01*
X40238Y-27756D01*
X40208Y-27683D01*
X40152Y-27627D01*
X40078Y-27596D01*
X39999Y-27596D01*
X39791Y-27596D01*
X39292Y-24847D01*
X39290Y-24843D01*
X39290Y-24833D01*
X38949Y-23400D01*
X38940Y-23381D01*
X38936Y-23360D01*
X38918Y-23317D01*
X38910Y-23306D01*
X38906Y-23291D01*
X38583Y-22700D01*
X38559Y-22671D01*
X38538Y-22640D01*
X38377Y-22479D01*
X38337Y-22452D01*
X38300Y-22425D01*
X38276Y-22414D01*
X38276Y-22401D01*
X38245Y-22328D01*
X38189Y-22272D01*
X38116Y-22241D01*
X38036Y-22241D01*
X37429Y-22241D01*
X36430Y-21565D01*
X36406Y-21554D01*
X36383Y-21540D01*
X36089Y-21418D01*
X36060Y-21412D01*
X36037Y-21403D01*
X35818Y-21362D01*
X35824Y-21348D01*
X35824Y-21268D01*
X35824Y-20818D01*
X35793Y-20745D01*
X35737Y-20688D01*
X35664Y-20658D01*
X35584Y-20658D01*
X35384Y-20658D01*
X35311Y-20688D01*
X35274Y-20725D01*
X35237Y-20688D01*
X35164Y-20658D01*
X35084Y-20658D01*
X34884Y-20658D01*
X34811Y-20688D01*
X34774Y-20725D01*
X34737Y-20688D01*
X34664Y-20658D01*
X34584Y-20658D01*
X34384Y-20658D01*
X34311Y-20688D01*
X34274Y-20725D01*
X34237Y-20688D01*
X34164Y-20658D01*
X34084Y-20658D01*
X33884Y-20658D01*
X33811Y-20688D01*
X33774Y-20725D01*
X33737Y-20688D01*
X33664Y-20658D01*
X33584Y-20658D01*
X33384Y-20658D01*
X33311Y-20688D01*
X33309Y-20690D01*
X33265Y-20646D01*
X33173Y-20608D01*
X33136Y-20608D01*
X33074Y-20670D01*
X33074Y-21033D01*
X33082Y-21033D01*
X33082Y-21133D01*
X33074Y-21133D01*
X33074Y-21495D01*
X33136Y-21558D01*
X33173Y-21558D01*
X33265Y-21520D01*
X33294Y-21491D01*
X33294Y-21527D01*
X33314Y-21628D01*
X33324Y-21654D01*
X33344Y-21683D01*
X33359Y-21713D01*
X33528Y-21934D01*
X33542Y-21947D01*
X33551Y-21961D01*
X33971Y-22381D01*
X34057Y-22438D01*
X34225Y-22508D01*
X34232Y-22509D01*
X34238Y-22513D01*
X34705Y-22679D01*
X34744Y-22685D01*
X34794Y-22695D01*
X35082Y-22695D01*
X35130Y-22714D01*
X35074Y-22770D01*
X35074Y-23133D01*
X35236Y-23133D01*
X35311Y-23133D01*
X35474Y-23133D01*
X35474Y-23125D01*
X35574Y-23125D01*
X35574Y-23133D01*
X35582Y-23133D01*
X35582Y-23233D01*
X35574Y-23233D01*
X35574Y-23595D01*
X35636Y-23658D01*
X35673Y-23658D01*
X35765Y-23620D01*
X35835Y-23550D01*
X35871Y-23463D01*
X36451Y-24841D01*
X36454Y-24845D01*
X36500Y-24957D01*
X36500Y-26169D01*
X36501Y-26175D01*
X36500Y-26182D01*
X36595Y-28203D01*
X36599Y-28218D01*
X36066Y-28218D01*
X36066Y-27629D01*
X36066Y-27150D01*
X36028Y-27058D01*
X35958Y-26988D01*
X35866Y-26949D01*
X35767Y-26949D01*
X35334Y-26949D01*
X35271Y-27012D01*
X35271Y-27339D01*
X36004Y-27339D01*
X36066Y-27277D01*
X36066Y-27150D01*
X36066Y-27629D01*
X36066Y-27502D01*
X36004Y-27439D01*
X35271Y-27439D01*
X35271Y-27767D01*
X35334Y-27829D01*
X35767Y-27829D01*
X35866Y-27829D01*
X35958Y-27791D01*
X36028Y-27721D01*
X36066Y-27629D01*
X36066Y-28218D01*
X35372Y-28218D01*
X35372Y-29196D01*
X37320Y-29196D01*
X37320Y-29764D01*
X37320Y-29804D01*
X37320Y-30154D01*
X37350Y-30228D01*
X37406Y-30284D01*
X37415Y-30287D01*
X37378Y-30303D01*
X37308Y-30373D01*
X37270Y-30465D01*
X37270Y-30577D01*
X37332Y-30639D01*
X37745Y-30639D01*
X37745Y-30632D01*
X37845Y-30632D01*
X37845Y-30639D01*
X38257Y-30639D01*
X38320Y-30577D01*
X38320Y-30465D01*
X38282Y-30373D01*
X38212Y-30303D01*
X38175Y-30287D01*
X38183Y-30284D01*
X38239Y-30228D01*
X38270Y-30154D01*
X38270Y-30075D01*
X38270Y-29725D01*
X38239Y-29651D01*
X38183Y-29595D01*
X38110Y-29564D01*
X38030Y-29564D01*
X37850Y-29564D01*
X37850Y-29086D01*
X37874Y-29096D01*
X37953Y-29096D01*
X38503Y-29096D01*
X38577Y-29066D01*
X38582Y-29060D01*
X38587Y-29065D01*
X38661Y-29096D01*
X38740Y-29096D01*
X39290Y-29096D01*
X39364Y-29066D01*
X39370Y-29060D01*
X39375Y-29065D01*
X39448Y-29096D01*
X39498Y-29096D01*
X39498Y-29564D01*
X39449Y-29564D01*
X39375Y-29595D01*
X39319Y-29651D01*
X39288Y-29725D01*
X39288Y-29804D01*
X39288Y-30154D01*
X39319Y-30228D01*
X39375Y-30284D01*
X39383Y-30287D01*
X39346Y-30303D01*
X39276Y-30373D01*
X39238Y-30465D01*
X39238Y-30577D01*
X39301Y-30639D01*
X39713Y-30639D01*
X39713Y-30632D01*
X39813Y-30632D01*
X39813Y-30639D01*
X40226Y-30639D01*
X40288Y-30577D01*
X40288Y-30465D01*
X40288Y-30914D01*
X40288Y-30802D01*
X40226Y-30739D01*
X39813Y-30739D01*
X39813Y-31052D01*
X39876Y-31114D01*
X39989Y-31115D01*
X40088Y-31114D01*
X40180Y-31076D01*
X40250Y-31006D01*
X40288Y-30914D01*
X40288Y-35428D01*
X39305Y-35428D01*
X39305Y-35348D01*
X39305Y-34370D01*
X37606Y-34370D01*
X37606Y-35348D01*
X39305Y-35348D01*
X39305Y-35428D01*
X35975Y-35428D01*
X35975Y-35172D01*
X36161Y-35172D01*
X36161Y-33807D01*
X35605Y-33807D01*
X35605Y-33166D01*
X34627Y-33166D01*
X34627Y-33358D01*
X34566Y-33358D01*
X34603Y-33268D01*
X34603Y-33168D01*
X34603Y-32717D01*
X34603Y-32618D01*
X34565Y-32526D01*
X34495Y-32456D01*
X34403Y-32418D01*
X34291Y-32418D01*
X34228Y-32480D01*
X34228Y-32893D01*
X34541Y-32893D01*
X34603Y-32830D01*
X34603Y-32717D01*
X34603Y-33168D01*
X34603Y-33055D01*
X34541Y-32993D01*
X34228Y-32993D01*
X34228Y-33000D01*
X34128Y-33000D01*
X34128Y-32993D01*
X34120Y-32993D01*
X34120Y-32893D01*
X34128Y-32893D01*
X34128Y-32480D01*
X34066Y-32418D01*
X33954Y-32418D01*
X33862Y-32456D01*
X33791Y-32526D01*
X33776Y-32562D01*
X33773Y-32554D01*
X33756Y-32538D01*
X33756Y-31818D01*
X32423Y-31818D01*
X32423Y-32796D01*
X33053Y-32796D01*
X33053Y-33257D01*
X33074Y-33308D01*
X33042Y-33308D01*
X33042Y-33370D01*
X32980Y-33308D01*
X32943Y-33308D01*
X32851Y-33346D01*
X32781Y-33416D01*
X32742Y-33508D01*
X32742Y-33607D01*
X32742Y-33670D01*
X32805Y-33733D01*
X33042Y-33733D01*
X33042Y-33725D01*
X33142Y-33725D01*
X33142Y-33733D01*
X33150Y-33733D01*
X33150Y-33833D01*
X33142Y-33833D01*
X33142Y-33841D01*
X33042Y-33841D01*
X33042Y-33833D01*
X32805Y-33833D01*
X32742Y-33895D01*
X32742Y-33958D01*
X32742Y-34046D01*
X32710Y-34033D01*
X32611Y-34033D01*
X32498Y-34033D01*
X32435Y-34095D01*
X32435Y-34408D01*
X32848Y-34408D01*
X32910Y-34345D01*
X32910Y-34244D01*
X32943Y-34258D01*
X32963Y-34258D01*
X32942Y-34308D01*
X32942Y-34407D01*
X32942Y-34720D01*
X33005Y-34783D01*
X33792Y-34783D01*
X33792Y-34775D01*
X33892Y-34775D01*
X33892Y-34783D01*
X34680Y-34783D01*
X34742Y-34720D01*
X34742Y-34574D01*
X35025Y-35177D01*
X35025Y-35183D01*
X35025Y-35434D01*
X34709Y-35458D01*
X34696Y-35458D01*
X34704Y-35450D01*
X34742Y-35358D01*
X34742Y-35258D01*
X34742Y-34945D01*
X34680Y-34883D01*
X33892Y-34883D01*
X33892Y-34891D01*
X33792Y-34891D01*
X33792Y-34883D01*
X33005Y-34883D01*
X32942Y-34945D01*
X32942Y-35258D01*
X32942Y-35358D01*
X32981Y-35450D01*
X32989Y-35458D01*
X32971Y-35458D01*
X32931Y-35457D01*
X32860Y-35337D01*
X32860Y-34993D01*
X32830Y-34920D01*
X32773Y-34863D01*
X32765Y-34860D01*
X32802Y-34845D01*
X32872Y-34774D01*
X32910Y-34682D01*
X32910Y-34570D01*
X32848Y-34508D01*
X32435Y-34508D01*
X32435Y-34516D01*
X32335Y-34516D01*
X32335Y-34508D01*
X32327Y-34508D01*
X32327Y-34408D01*
X32335Y-34408D01*
X32335Y-34095D01*
X32273Y-34033D01*
X32160Y-34033D01*
X32109Y-34033D01*
X32284Y-31081D01*
X33128Y-31081D01*
X33730Y-31391D01*
X33785Y-31407D01*
X33825Y-31419D01*
X33829Y-31420D01*
X33829Y-31420D01*
X33830Y-31420D01*
X35745Y-31614D01*
X35745Y-31691D01*
X35775Y-31765D01*
X35832Y-31821D01*
X35905Y-31852D01*
X35985Y-31852D01*
X36233Y-31852D01*
X36243Y-31866D01*
X36281Y-31904D01*
X36288Y-31909D01*
X36294Y-31917D01*
X36331Y-31938D01*
X36367Y-31962D01*
X36376Y-31964D01*
X36384Y-31968D01*
X37246Y-32257D01*
X37246Y-33359D01*
X37276Y-33433D01*
X37332Y-33489D01*
X37406Y-33519D01*
X37486Y-33519D01*
X39616Y-33519D01*
X39689Y-33489D01*
X39745Y-33433D01*
X39776Y-33359D01*
X39776Y-33280D01*
X39776Y-31940D01*
X39746Y-31866D01*
X39713Y-31834D01*
X39713Y-31052D01*
X39713Y-30739D01*
X39301Y-30739D01*
X39238Y-30802D01*
X39238Y-30914D01*
X39276Y-31006D01*
X39346Y-31076D01*
X39438Y-31114D01*
X39538Y-31115D01*
X39651Y-31114D01*
X39713Y-31052D01*
X39713Y-31834D01*
X39689Y-31810D01*
X39616Y-31779D01*
X39536Y-31779D01*
X38729Y-31779D01*
X38729Y-30901D01*
X38320Y-30901D01*
X38320Y-30802D01*
X38257Y-30739D01*
X37845Y-30739D01*
X37845Y-30747D01*
X37745Y-30747D01*
X37745Y-30739D01*
X37332Y-30739D01*
X37270Y-30802D01*
X37270Y-30901D01*
X36954Y-30901D01*
X36954Y-31600D01*
X36695Y-31513D01*
X36695Y-31262D01*
X36665Y-31189D01*
X36608Y-31132D01*
X36600Y-31129D01*
X36637Y-31114D01*
X36707Y-31043D01*
X36745Y-30951D01*
X36745Y-30502D01*
X36707Y-30410D01*
X36637Y-30340D01*
X36545Y-30302D01*
X36445Y-30302D01*
X36332Y-30302D01*
X36270Y-30364D01*
X36270Y-30677D01*
X36682Y-30677D01*
X36745Y-30614D01*
X36745Y-30502D01*
X36745Y-30951D01*
X36745Y-30839D01*
X36682Y-30777D01*
X36270Y-30777D01*
X36270Y-30785D01*
X36170Y-30785D01*
X36170Y-30777D01*
X36170Y-30677D01*
X36170Y-30364D01*
X36107Y-30302D01*
X35994Y-30302D01*
X35895Y-30302D01*
X35803Y-30340D01*
X35733Y-30410D01*
X35695Y-30502D01*
X35695Y-30614D01*
X35757Y-30677D01*
X36170Y-30677D01*
X36170Y-30777D01*
X35757Y-30777D01*
X35695Y-30839D01*
X35695Y-30951D01*
X35733Y-31043D01*
X35774Y-31085D01*
X35357Y-31042D01*
X35377Y-31022D01*
X35415Y-30931D01*
X35416Y-30831D01*
X35416Y-30130D01*
X35415Y-30031D01*
X35377Y-29939D01*
X35307Y-29869D01*
X35215Y-29831D01*
X35171Y-29831D01*
X35171Y-27767D01*
X35171Y-27439D01*
X35171Y-27339D01*
X35171Y-27012D01*
X35109Y-26949D01*
X34676Y-26949D01*
X34576Y-26949D01*
X34484Y-26988D01*
X34414Y-27058D01*
X34376Y-27150D01*
X34376Y-27277D01*
X34439Y-27339D01*
X35171Y-27339D01*
X35171Y-27439D01*
X34439Y-27439D01*
X34376Y-27502D01*
X34376Y-27629D01*
X34414Y-27721D01*
X34484Y-27791D01*
X34576Y-27829D01*
X34676Y-27829D01*
X35109Y-27829D01*
X35171Y-27767D01*
X35171Y-29831D01*
X34678Y-29831D01*
X34616Y-29893D01*
X34616Y-30431D01*
X35353Y-30431D01*
X35416Y-30368D01*
X35416Y-30130D01*
X35416Y-30831D01*
X35416Y-30593D01*
X35353Y-30531D01*
X34616Y-30531D01*
X34616Y-30539D01*
X34516Y-30539D01*
X34516Y-30531D01*
X34516Y-30431D01*
X34516Y-29893D01*
X34453Y-29831D01*
X33916Y-29831D01*
X33824Y-29869D01*
X33754Y-29939D01*
X33716Y-30031D01*
X33715Y-30130D01*
X33716Y-30368D01*
X33778Y-30431D01*
X34516Y-30431D01*
X34516Y-30531D01*
X33778Y-30531D01*
X33716Y-30593D01*
X33715Y-30787D01*
X33366Y-30607D01*
X33366Y-30098D01*
X34164Y-27780D01*
X34174Y-27703D01*
X34176Y-27693D01*
X34176Y-27689D01*
X34178Y-27678D01*
X34176Y-27672D01*
X34176Y-27465D01*
X34176Y-27089D01*
X34176Y-27089D01*
X34176Y-27088D01*
X34176Y-27085D01*
X34167Y-27041D01*
X34157Y-26987D01*
X34156Y-26985D01*
X34156Y-26984D01*
X34131Y-26947D01*
X34113Y-26918D01*
X34426Y-26450D01*
X34426Y-26619D01*
X34456Y-26693D01*
X34513Y-26749D01*
X34586Y-26779D01*
X34666Y-26779D01*
X35856Y-26779D01*
X35929Y-26749D01*
X35985Y-26693D01*
X36016Y-26619D01*
X36016Y-26540D01*
X36016Y-26461D01*
X36030Y-26452D01*
X36068Y-26414D01*
X36070Y-26411D01*
X36072Y-26410D01*
X36099Y-26368D01*
X36126Y-26328D01*
X36126Y-26325D01*
X36128Y-26323D01*
X36336Y-25789D01*
X36346Y-25732D01*
X36354Y-25692D01*
X36354Y-25688D01*
X36354Y-25687D01*
X36354Y-25686D01*
X36354Y-25466D01*
X36354Y-25086D01*
X36354Y-25086D01*
X36354Y-25086D01*
X36334Y-24985D01*
X36276Y-24899D01*
X36276Y-24899D01*
X36116Y-24739D01*
X36085Y-24718D01*
X36056Y-24694D01*
X36042Y-24689D01*
X36031Y-24682D01*
X35993Y-24674D01*
X35957Y-24663D01*
X35597Y-24624D01*
X35597Y-24095D01*
X35566Y-24021D01*
X35510Y-23965D01*
X35474Y-23950D01*
X35474Y-23595D01*
X35474Y-23233D01*
X35311Y-23233D01*
X35236Y-23233D01*
X35074Y-23233D01*
X35074Y-23595D01*
X35136Y-23658D01*
X35173Y-23658D01*
X35265Y-23620D01*
X35274Y-23611D01*
X35282Y-23620D01*
X35374Y-23658D01*
X35411Y-23658D01*
X35474Y-23595D01*
X35474Y-23950D01*
X35436Y-23935D01*
X35357Y-23934D01*
X34757Y-23934D01*
X34728Y-23946D01*
X34753Y-23649D01*
X34751Y-23639D01*
X34754Y-23627D01*
X34754Y-23591D01*
X34782Y-23620D01*
X34874Y-23658D01*
X34911Y-23658D01*
X34974Y-23595D01*
X34974Y-23233D01*
X34966Y-23233D01*
X34966Y-23133D01*
X34974Y-23133D01*
X34974Y-22770D01*
X34911Y-22708D01*
X34874Y-22708D01*
X34782Y-22746D01*
X34738Y-22790D01*
X34737Y-22788D01*
X34664Y-22758D01*
X34584Y-22758D01*
X34384Y-22758D01*
X34311Y-22788D01*
X34274Y-22825D01*
X34237Y-22788D01*
X34164Y-22758D01*
X34084Y-22758D01*
X33884Y-22758D01*
X33811Y-22788D01*
X33809Y-22790D01*
X33765Y-22746D01*
X33673Y-22708D01*
X33636Y-22708D01*
X33574Y-22770D01*
X33574Y-23133D01*
X33582Y-23133D01*
X33582Y-23233D01*
X33574Y-23233D01*
X33574Y-23241D01*
X33474Y-23241D01*
X33474Y-23233D01*
X33466Y-23233D01*
X33466Y-23133D01*
X33474Y-23133D01*
X33474Y-22770D01*
X33411Y-22708D01*
X33374Y-22708D01*
X33282Y-22746D01*
X33238Y-22790D01*
X33237Y-22788D01*
X33164Y-22758D01*
X33084Y-22758D01*
X32884Y-22758D01*
X32811Y-22788D01*
X32774Y-22825D01*
X32737Y-22788D01*
X32664Y-22758D01*
X32584Y-22758D01*
X32466Y-22758D01*
X32466Y-22715D01*
X31588Y-22715D01*
X32517Y-21508D01*
X32663Y-21508D01*
X32737Y-21478D01*
X32738Y-21476D01*
X32782Y-21520D01*
X32874Y-21558D01*
X32911Y-21558D01*
X32974Y-21495D01*
X32974Y-21133D01*
X32966Y-21133D01*
X32966Y-21033D01*
X32974Y-21033D01*
X32974Y-20670D01*
X32911Y-20608D01*
X32874Y-20608D01*
X32782Y-20646D01*
X32738Y-20690D01*
X32737Y-20688D01*
X32664Y-20658D01*
X32584Y-20658D01*
X32384Y-20658D01*
X32311Y-20688D01*
X32254Y-20744D01*
X32224Y-20818D01*
X32224Y-20897D01*
X32224Y-21046D01*
X32209Y-21056D01*
X32209Y-21056D01*
X32171Y-21094D01*
X32163Y-21106D01*
X32148Y-21119D01*
X31445Y-22031D01*
X31445Y-21479D01*
X31444Y-21030D01*
X31275Y-20623D01*
X31119Y-20525D01*
X30385Y-21259D01*
X31119Y-21994D01*
X31275Y-21895D01*
X31445Y-21479D01*
X31445Y-22031D01*
X31049Y-22546D01*
X31049Y-22064D01*
X30314Y-21330D01*
X29580Y-22064D01*
X29678Y-22220D01*
X30094Y-22390D01*
X30544Y-22388D01*
X30951Y-22220D01*
X31049Y-22064D01*
X31049Y-22546D01*
X30684Y-23020D01*
X30389Y-23020D01*
X30316Y-23050D01*
X30260Y-23106D01*
X30256Y-23114D01*
X30241Y-23078D01*
X30170Y-23007D01*
X30079Y-22969D01*
X29967Y-22970D01*
X29904Y-23032D01*
X29904Y-23445D01*
X29912Y-23445D01*
X29912Y-23545D01*
X29904Y-23545D01*
X29904Y-23957D01*
X29967Y-24020D01*
X30079Y-24020D01*
X30147Y-23991D01*
X30088Y-24165D01*
X30068Y-24173D01*
X30012Y-24229D01*
X29981Y-24303D01*
X29981Y-24382D01*
X29981Y-24982D01*
X30011Y-25056D01*
X30051Y-25096D01*
X30051Y-25162D01*
X30071Y-25263D01*
X30082Y-25289D01*
X30139Y-25375D01*
X30139Y-25375D01*
X30449Y-25685D01*
X30467Y-25697D01*
X30482Y-25713D01*
X30821Y-25955D01*
X30838Y-25963D01*
X30852Y-25974D01*
X31128Y-26119D01*
X31441Y-26323D01*
X31852Y-26734D01*
X31831Y-26755D01*
X31831Y-27193D01*
X32069Y-27193D01*
X32131Y-27130D01*
X32131Y-27013D01*
X32149Y-27031D01*
X32174Y-27048D01*
X32195Y-27068D01*
X32216Y-27076D01*
X32235Y-27089D01*
X32264Y-27095D01*
X32272Y-27098D01*
X32246Y-27159D01*
X32246Y-27239D01*
X32246Y-27312D01*
X32131Y-27395D01*
X32131Y-27355D01*
X32069Y-27293D01*
X31831Y-27293D01*
X31831Y-27301D01*
X31731Y-27301D01*
X31731Y-27293D01*
X31723Y-27293D01*
X31723Y-27193D01*
X31731Y-27193D01*
X31731Y-26755D01*
X31669Y-26693D01*
X31632Y-26693D01*
X31540Y-26731D01*
X31497Y-26773D01*
X31490Y-26700D01*
X31478Y-26663D01*
X31471Y-26626D01*
X31464Y-26608D01*
X31464Y-26608D01*
X31459Y-26602D01*
X31459Y-26601D01*
X31458Y-26600D01*
X31458Y-26600D01*
X31445Y-26580D01*
X31406Y-26522D01*
X31406Y-26522D01*
X31102Y-26218D01*
X31102Y-26218D01*
X31037Y-26174D01*
X31031Y-26169D01*
X31027Y-26168D01*
X31016Y-26160D01*
X30998Y-26153D01*
X30966Y-26147D01*
X30934Y-26135D01*
X30511Y-26075D01*
X30492Y-26076D01*
X30473Y-26072D01*
X30019Y-26072D01*
X30019Y-26072D01*
X29917Y-26093D01*
X29877Y-26109D01*
X29877Y-26109D01*
X29804Y-26158D01*
X29804Y-23957D01*
X29804Y-23545D01*
X29804Y-23445D01*
X29804Y-23032D01*
X29742Y-22970D01*
X29630Y-22969D01*
X29538Y-23007D01*
X29467Y-23078D01*
X29429Y-23170D01*
X29429Y-23269D01*
X29429Y-23382D01*
X29492Y-23445D01*
X29804Y-23445D01*
X29804Y-23545D01*
X29492Y-23545D01*
X29429Y-23607D01*
X29429Y-23720D01*
X29429Y-23819D01*
X29467Y-23911D01*
X29538Y-23982D01*
X29630Y-24020D01*
X29742Y-24020D01*
X29804Y-23957D01*
X29804Y-26158D01*
X29791Y-26167D01*
X29470Y-26488D01*
X29460Y-26503D01*
X29446Y-26515D01*
X29424Y-26544D01*
X29409Y-26574D01*
X29391Y-26603D01*
X29382Y-26624D01*
X29379Y-26637D01*
X29379Y-26637D01*
X29379Y-26637D01*
X29361Y-26726D01*
X29361Y-27326D01*
X29361Y-27760D01*
X29363Y-27770D01*
X29362Y-27780D01*
X29392Y-28164D01*
X29392Y-28318D01*
X29392Y-28728D01*
X29355Y-29114D01*
X29356Y-29126D01*
X29353Y-29139D01*
X29353Y-29716D01*
X29357Y-29733D01*
X29356Y-29751D01*
X29618Y-31668D01*
X29630Y-31701D01*
X29634Y-31724D01*
X30103Y-32980D01*
X30044Y-33039D01*
X29957Y-33250D01*
X29957Y-33478D01*
X30044Y-33689D01*
X30205Y-33851D01*
X30416Y-33938D01*
X30645Y-33938D01*
X30856Y-33851D01*
X31017Y-33690D01*
X31105Y-33479D01*
X31105Y-33251D01*
X31018Y-33039D01*
X30856Y-32878D01*
X30646Y-32790D01*
X30598Y-32790D01*
X30268Y-31908D01*
X30416Y-31970D01*
X30645Y-31970D01*
X30856Y-31883D01*
X31017Y-31721D01*
X31105Y-31510D01*
X31105Y-31282D01*
X31018Y-31071D01*
X30856Y-30909D01*
X30646Y-30822D01*
X30609Y-30822D01*
X30306Y-29955D01*
X30416Y-30001D01*
X30645Y-30001D01*
X30856Y-29914D01*
X30872Y-29898D01*
X31765Y-30354D01*
X31765Y-30887D01*
X31764Y-30892D01*
X31570Y-34153D01*
X31571Y-34156D01*
X31570Y-34160D01*
X31495Y-36298D01*
X31159Y-36298D01*
X31159Y-35432D01*
X31149Y-35184D01*
X31073Y-35000D01*
X30970Y-34964D01*
X30900Y-35035D01*
X30900Y-34893D01*
X30863Y-34790D01*
X30630Y-34704D01*
X30382Y-34714D01*
X30198Y-34790D01*
X30162Y-34893D01*
X30531Y-35262D01*
X30900Y-34893D01*
X30900Y-35035D01*
X30602Y-35333D01*
X30970Y-35702D01*
X31073Y-35665D01*
X31159Y-35432D01*
X31159Y-36298D01*
X30900Y-36298D01*
X30900Y-35772D01*
X30531Y-35403D01*
X30460Y-35474D01*
X30460Y-35333D01*
X30091Y-34964D01*
X29988Y-35000D01*
X29902Y-35233D01*
X29912Y-35481D01*
X29988Y-35665D01*
X30091Y-35702D01*
X30460Y-35333D01*
X30460Y-35474D01*
X30162Y-35772D01*
X30198Y-35875D01*
X30431Y-35961D01*
X30679Y-35951D01*
X30863Y-35875D01*
X30900Y-35772D01*
X30900Y-36298D01*
X30462Y-36298D01*
X30462Y-36886D01*
X30314Y-36886D01*
X30314Y-37452D01*
X30085Y-37453D01*
X29678Y-37622D01*
X29580Y-37777D01*
X30314Y-38511D01*
X30320Y-38506D01*
X30391Y-38577D01*
X30385Y-38582D01*
X31119Y-39317D01*
X31275Y-39218D01*
X31445Y-38802D01*
X31444Y-38353D01*
X31275Y-37946D01*
X31145Y-37864D01*
X31493Y-37864D01*
X31493Y-38104D01*
X31493Y-38332D01*
X31493Y-38332D01*
X31513Y-38434D01*
X31571Y-38520D01*
X31732Y-38681D01*
X31732Y-38681D01*
X31818Y-38738D01*
X31919Y-38758D01*
X32269Y-38758D01*
X32497Y-38758D01*
X32523Y-38753D01*
X32549Y-38753D01*
X32573Y-38743D01*
X32598Y-38738D01*
X32620Y-38723D01*
X32645Y-38713D01*
X32958Y-38503D01*
X32975Y-38486D01*
X32997Y-38471D01*
X33035Y-38433D01*
X33035Y-38433D01*
X33035Y-38433D01*
X33045Y-38418D01*
X33173Y-38418D01*
X33246Y-38388D01*
X33302Y-38332D01*
X33333Y-38258D01*
X33333Y-38179D01*
X33333Y-37629D01*
X33303Y-37555D01*
X33246Y-37499D01*
X33223Y-37489D01*
X33223Y-37216D01*
X33246Y-37207D01*
X33302Y-37151D01*
X33333Y-37077D01*
X33333Y-36998D01*
X33333Y-36749D01*
X33347Y-36740D01*
X33385Y-36701D01*
X33388Y-36698D01*
X33391Y-36696D01*
X33744Y-36323D01*
X33745Y-36322D01*
X33746Y-36320D01*
X33750Y-36317D01*
X33763Y-36295D01*
X33806Y-36277D01*
X33842Y-36241D01*
X33879Y-36277D01*
X33906Y-36288D01*
X34005Y-36508D01*
X34005Y-36517D01*
X34005Y-37217D01*
X34035Y-37291D01*
X34091Y-37347D01*
X34138Y-37367D01*
X34138Y-37835D01*
X34063Y-37866D01*
X33993Y-37936D01*
X33955Y-38028D01*
X33955Y-38315D01*
X34017Y-38378D01*
X34580Y-38378D01*
X34580Y-38370D01*
X34680Y-38370D01*
X34680Y-38378D01*
X35242Y-38378D01*
X35305Y-38315D01*
X35305Y-38028D01*
X35267Y-37936D01*
X35197Y-37866D01*
X35116Y-37833D01*
X35116Y-37369D01*
X35168Y-37347D01*
X35224Y-37291D01*
X35255Y-37218D01*
X35255Y-37138D01*
X35255Y-36740D01*
X35269Y-36730D01*
X35307Y-36692D01*
X35312Y-36685D01*
X35319Y-36680D01*
X35516Y-36456D01*
X35524Y-36443D01*
X35815Y-36443D01*
X35815Y-36443D01*
X37246Y-36443D01*
X37246Y-37359D01*
X37276Y-37433D01*
X37332Y-37489D01*
X37406Y-37519D01*
X37486Y-37519D01*
X39616Y-37519D01*
X39689Y-37489D01*
X39745Y-37433D01*
X39776Y-37359D01*
X39776Y-37280D01*
X39776Y-35958D01*
X41107Y-35958D01*
X41107Y-36308D01*
X41138Y-36381D01*
X41194Y-36438D01*
X41267Y-36468D01*
X41347Y-36468D01*
X42222Y-36468D01*
X42506Y-37290D01*
X42467Y-37306D01*
X42130Y-37643D01*
X41957Y-38060D01*
X41766Y-37601D01*
X41766Y-37601D01*
X41598Y-37488D01*
X41528Y-37559D01*
X41528Y-37418D01*
X41415Y-37250D01*
X40955Y-37059D01*
X40458Y-37059D01*
X39999Y-37249D01*
X39998Y-37250D01*
X39886Y-37418D01*
X40707Y-38238D01*
X41528Y-37418D01*
X41528Y-37559D01*
X40777Y-38309D01*
X41598Y-39130D01*
X41766Y-39017D01*
X41951Y-38572D01*
X42128Y-39003D01*
X42466Y-39341D01*
X42907Y-39524D01*
X43384Y-39524D01*
X43825Y-39342D01*
X44163Y-39005D01*
X44346Y-38564D01*
X44347Y-38086D01*
X44164Y-37645D01*
X43857Y-37338D01*
X43857Y-36456D01*
X43857Y-35918D01*
X43120Y-35918D01*
X43057Y-35981D01*
X43057Y-36219D01*
X43057Y-36318D01*
X43095Y-36410D01*
X43166Y-36480D01*
X43258Y-36518D01*
X43795Y-36518D01*
X43857Y-36456D01*
X43857Y-37338D01*
X43827Y-37307D01*
X43386Y-37124D01*
X43010Y-37124D01*
X42707Y-36250D01*
X42707Y-36228D01*
X42707Y-35428D01*
X42698Y-35406D01*
X43062Y-35406D01*
X43057Y-35418D01*
X43057Y-35518D01*
X43057Y-35756D01*
X43120Y-35818D01*
X43857Y-35818D01*
X43857Y-35281D01*
X43834Y-35257D01*
X43834Y-34428D01*
X43675Y-34428D01*
X43701Y-34364D01*
X43701Y-34265D01*
X43701Y-34152D01*
X43639Y-34090D01*
X43326Y-34090D01*
X43326Y-34097D01*
X43226Y-34097D01*
X43226Y-34090D01*
X43218Y-34090D01*
X43218Y-33990D01*
X43226Y-33990D01*
X43226Y-33577D01*
X43212Y-33563D01*
X43234Y-33554D01*
X43290Y-33498D01*
X43320Y-33425D01*
X43320Y-33424D01*
X43351Y-33498D01*
X43378Y-33525D01*
X43326Y-33577D01*
X43326Y-33990D01*
X43639Y-33990D01*
X43701Y-33927D01*
X43701Y-33814D01*
X43701Y-33715D01*
X43663Y-33623D01*
X43625Y-33585D01*
X43755Y-33585D01*
X44628Y-35248D01*
X44557Y-35218D01*
X44020Y-35218D01*
X43957Y-35281D01*
X43957Y-35818D01*
X43965Y-35818D01*
X43965Y-35918D01*
X43957Y-35918D01*
X43957Y-36456D01*
X44020Y-36518D01*
X44557Y-36518D01*
X44649Y-36480D01*
X44719Y-36410D01*
X44757Y-36318D01*
X44757Y-36219D01*
X44757Y-36197D01*
X44791Y-36211D01*
X44870Y-36211D01*
X45095Y-36211D01*
X45095Y-36884D01*
X46520Y-36884D01*
X46520Y-36211D01*
X46770Y-36211D01*
X46844Y-36181D01*
X46900Y-36125D01*
X46931Y-36051D01*
X46931Y-35972D01*
X46931Y-35172D01*
X46900Y-35098D01*
X46844Y-35042D01*
X46835Y-35038D01*
X46835Y-34365D01*
X46845Y-34365D01*
X46918Y-34334D01*
X46975Y-34278D01*
X47005Y-34205D01*
X47005Y-34125D01*
X47005Y-33725D01*
X46975Y-33651D01*
X46918Y-33595D01*
X46845Y-33565D01*
X46765Y-33565D01*
X46465Y-33565D01*
X46392Y-33595D01*
X46336Y-33651D01*
X46332Y-33661D01*
X46305Y-33598D01*
X46235Y-33527D01*
X46143Y-33489D01*
X46056Y-33489D01*
X45994Y-33552D01*
X45994Y-33889D01*
X46001Y-33889D01*
X46001Y-33989D01*
X45994Y-33989D01*
X45994Y-34327D01*
X46056Y-34389D01*
X46143Y-34389D01*
X46235Y-34351D01*
X46305Y-34282D01*
X46305Y-34920D01*
X45767Y-34389D01*
X45831Y-34389D01*
X45894Y-34327D01*
X45894Y-33989D01*
X45894Y-33889D01*
X45894Y-33552D01*
X45831Y-33489D01*
X45744Y-33489D01*
X45652Y-33527D01*
X45582Y-33598D01*
X45544Y-33689D01*
X45544Y-33789D01*
X45544Y-33827D01*
X45606Y-33889D01*
X45894Y-33889D01*
X45894Y-33989D01*
X45606Y-33989D01*
X45544Y-34052D01*
X45544Y-34090D01*
X45544Y-34169D01*
X45257Y-33886D01*
X45244Y-33877D01*
X45244Y-33700D01*
X45213Y-33626D01*
X45157Y-33570D01*
X45084Y-33539D01*
X45004Y-33539D01*
X44704Y-33539D01*
X44630Y-33570D01*
X44574Y-33626D01*
X44544Y-33699D01*
X44544Y-33779D01*
X44544Y-33946D01*
X44319Y-33519D01*
X44751Y-33519D01*
X44751Y-32319D01*
X44920Y-32319D01*
X45147Y-32319D01*
X45162Y-32317D01*
X45177Y-32318D01*
X45212Y-32307D01*
X45249Y-32299D01*
X45261Y-32291D01*
X45275Y-32287D01*
X45563Y-32128D01*
X45563Y-32559D01*
X46541Y-32559D01*
X46541Y-32005D01*
X46835Y-32005D01*
X46908Y-31974D01*
X46965Y-31918D01*
X46995Y-31845D01*
X46995Y-31765D01*
X46995Y-31365D01*
X46965Y-31291D01*
X46908Y-31235D01*
X46835Y-31205D01*
X46804Y-31205D01*
X46495Y-30515D01*
X47355Y-31479D01*
X47355Y-31760D01*
X47213Y-31760D01*
X47213Y-32529D01*
X48191Y-32529D01*
X48191Y-37764D01*
X48173Y-37752D01*
X48105Y-37820D01*
X48105Y-34115D01*
X48105Y-33814D01*
X48105Y-33715D01*
X48067Y-33623D01*
X47996Y-33553D01*
X47905Y-33515D01*
X47818Y-33515D01*
X47755Y-33577D01*
X47755Y-33915D01*
X48043Y-33915D01*
X48105Y-33852D01*
X48105Y-33814D01*
X48105Y-34115D01*
X48105Y-34077D01*
X48043Y-34015D01*
X47755Y-34015D01*
X47755Y-34352D01*
X47818Y-34415D01*
X47905Y-34415D01*
X47996Y-34377D01*
X48067Y-34306D01*
X48105Y-34215D01*
X48105Y-34115D01*
X48105Y-37820D01*
X48102Y-37823D01*
X48102Y-37682D01*
X48004Y-37526D01*
X47655Y-37383D01*
X47655Y-34352D01*
X47655Y-34015D01*
X47655Y-33915D01*
X47655Y-33577D01*
X47593Y-33515D01*
X47506Y-33515D01*
X47414Y-33553D01*
X47343Y-33623D01*
X47305Y-33715D01*
X47305Y-33814D01*
X47305Y-33852D01*
X47368Y-33915D01*
X47655Y-33915D01*
X47655Y-34015D01*
X47368Y-34015D01*
X47305Y-34077D01*
X47305Y-34115D01*
X47305Y-34215D01*
X47343Y-34306D01*
X47414Y-34377D01*
X47506Y-34415D01*
X47593Y-34415D01*
X47655Y-34352D01*
X47655Y-37383D01*
X47588Y-37356D01*
X47139Y-37357D01*
X46732Y-37526D01*
X46634Y-37682D01*
X47368Y-38416D01*
X48102Y-37682D01*
X48102Y-37823D01*
X47439Y-38487D01*
X48173Y-39221D01*
X48329Y-39123D01*
X48499Y-38707D01*
X48499Y-39544D01*
X47771Y-39544D01*
X48004Y-39447D01*
X48102Y-39292D01*
X47368Y-38557D01*
X47297Y-38628D01*
X47297Y-38487D01*
X46563Y-37752D01*
X46407Y-37850D01*
X46237Y-38266D01*
X46239Y-38716D01*
X46407Y-39123D01*
X46563Y-39221D01*
X47297Y-38487D01*
X47297Y-38628D01*
X46634Y-39292D01*
X46732Y-39447D01*
X46967Y-39544D01*
X40993Y-39544D01*
X41415Y-39369D01*
X41415Y-39369D01*
X41528Y-39201D01*
X40707Y-38380D01*
X40636Y-38451D01*
X40636Y-38309D01*
X39815Y-37488D01*
X39647Y-37601D01*
X39457Y-38061D01*
X39457Y-38558D01*
X39647Y-39017D01*
X39647Y-39017D01*
X39815Y-39130D01*
X40636Y-38309D01*
X40636Y-38451D01*
X39886Y-39201D01*
X39998Y-39369D01*
X40420Y-39544D01*
X35305Y-39544D01*
X35305Y-38827D01*
X35305Y-38540D01*
X35242Y-38478D01*
X34680Y-38478D01*
X34680Y-38965D01*
X34742Y-39028D01*
X35005Y-39028D01*
X35105Y-39028D01*
X35197Y-38990D01*
X35267Y-38919D01*
X35305Y-38827D01*
X35305Y-39544D01*
X34580Y-39544D01*
X34580Y-38965D01*
X34580Y-38478D01*
X34017Y-38478D01*
X33955Y-38540D01*
X33955Y-38827D01*
X33993Y-38919D01*
X34063Y-38990D01*
X34155Y-39028D01*
X34254Y-39028D01*
X34517Y-39028D01*
X34580Y-38965D01*
X34580Y-39544D01*
X30949Y-39544D01*
X30951Y-39543D01*
X31049Y-39387D01*
X30314Y-38653D01*
X29580Y-39387D01*
X29678Y-39543D01*
X29680Y-39544D01*
X29353Y-39544D01*
X29353Y-39216D01*
X29354Y-39218D01*
X29509Y-39317D01*
X30244Y-38582D01*
X29509Y-37848D01*
X29354Y-37946D01*
X29353Y-37948D01*
X29353Y-21894D01*
X29354Y-21895D01*
X29509Y-21994D01*
X30244Y-21259D01*
X29509Y-20525D01*
X29354Y-20623D01*
X29353Y-20625D01*
X29353Y-20298D01*
X29680Y-20298D01*
X29678Y-20299D01*
X29580Y-20454D01*
X30314Y-21189D01*
X31049Y-20454D01*
X30951Y-20299D01*
X30949Y-20298D01*
X36559Y-20298D01*
X36559Y-21256D01*
X43440Y-21256D01*
X43440Y-20298D01*
X44641Y-20298D01*
X44639Y-20299D01*
X44541Y-20454D01*
X45275Y-21189D01*
X46009Y-20454D01*
X45911Y-20299D01*
X45909Y-20298D01*
X48599Y-20298D01*
X48599Y-21331D01*
X46598Y-21331D01*
X46525Y-21361D01*
X46469Y-21418D01*
X46438Y-21491D01*
X46438Y-21571D01*
X46438Y-23371D01*
X46468Y-23444D01*
X46525Y-23500D01*
X46598Y-23531D01*
X46678Y-23531D01*
X48599Y-23531D01*
X48599Y-27231D01*
X46598Y-27231D01*
X46525Y-27261D01*
X46469Y-27318D01*
X46438Y-27391D01*
X46438Y-27471D01*
X46438Y-29271D01*
X46468Y-29344D01*
X46525Y-29400D01*
X46598Y-29431D01*
X46678Y-29431D01*
X48599Y-29431D01*
X48599Y-39544D01*
X48599Y-39544D01*
G37*
G54D33*
X48599Y-39544D02*
X48499Y-39544D01*
X48499Y-38707D01*
X48497Y-38257D01*
X48329Y-37850D01*
X48191Y-37764D01*
X48191Y-32529D01*
X48191Y-31760D01*
X48055Y-31760D01*
X48055Y-31365D01*
X48025Y-31291D01*
X47968Y-31235D01*
X47895Y-31205D01*
X47819Y-31205D01*
X47818Y-31202D01*
X47808Y-31191D01*
X47807Y-31190D01*
X47807Y-31190D01*
X46406Y-29617D01*
X46406Y-21479D01*
X46404Y-21030D01*
X46236Y-20623D01*
X46080Y-20525D01*
X45346Y-21259D01*
X46080Y-21994D01*
X46236Y-21895D01*
X46406Y-21479D01*
X46406Y-29617D01*
X46233Y-29423D01*
X46227Y-29419D01*
X46223Y-29412D01*
X46184Y-29374D01*
X46170Y-29365D01*
X46170Y-29037D01*
X46140Y-28963D01*
X46084Y-28907D01*
X46010Y-28877D01*
X46009Y-28877D01*
X46009Y-22064D01*
X45275Y-21330D01*
X45204Y-21401D01*
X45204Y-21259D01*
X44470Y-20525D01*
X44314Y-20623D01*
X44144Y-21039D01*
X44146Y-21489D01*
X44314Y-21895D01*
X44470Y-21994D01*
X45204Y-21259D01*
X45204Y-21401D01*
X44541Y-22064D01*
X44639Y-22220D01*
X45055Y-22390D01*
X45505Y-22388D01*
X45911Y-22220D01*
X46009Y-22064D01*
X46009Y-28877D01*
X45931Y-28876D01*
X45902Y-28876D01*
X44572Y-25300D01*
X44569Y-25295D01*
X44568Y-25291D01*
X44542Y-25252D01*
X44517Y-25212D01*
X44513Y-25209D01*
X44511Y-25205D01*
X44349Y-25044D01*
X44309Y-25017D01*
X44273Y-24990D01*
X44248Y-24979D01*
X44248Y-24966D01*
X44218Y-24893D01*
X44206Y-24881D01*
X44218Y-24869D01*
X44248Y-24796D01*
X44248Y-24716D01*
X44248Y-24466D01*
X44218Y-24393D01*
X44206Y-24381D01*
X44218Y-24369D01*
X44248Y-24296D01*
X44248Y-24216D01*
X44248Y-23966D01*
X44218Y-23893D01*
X44206Y-23881D01*
X44218Y-23869D01*
X44248Y-23796D01*
X44248Y-23716D01*
X44248Y-23466D01*
X44218Y-23393D01*
X44162Y-23337D01*
X44088Y-23306D01*
X44008Y-23306D01*
X43465Y-23306D01*
X43465Y-21800D01*
X43444Y-21698D01*
X43387Y-21612D01*
X43387Y-21612D01*
X43187Y-21412D01*
X43101Y-21355D01*
X43000Y-21334D01*
X42898Y-21355D01*
X42812Y-21412D01*
X42755Y-21498D01*
X42745Y-21545D01*
X42698Y-21555D01*
X42612Y-21612D01*
X42612Y-21612D01*
X42412Y-21812D01*
X42355Y-21898D01*
X42334Y-22000D01*
X42335Y-22000D01*
X42335Y-22200D01*
X42355Y-22301D01*
X42412Y-22387D01*
X42498Y-22444D01*
X42600Y-22465D01*
X42799Y-22465D01*
X42800Y-22465D01*
X42800Y-22465D01*
X42901Y-22444D01*
X42987Y-22387D01*
X43187Y-22187D01*
X43187Y-22187D01*
X43187Y-22187D01*
X43244Y-22101D01*
X43254Y-22054D01*
X43301Y-22044D01*
X43387Y-21987D01*
X43444Y-21901D01*
X43465Y-21800D01*
X43465Y-23306D01*
X43155Y-23306D01*
X42379Y-22576D01*
X42378Y-22574D01*
X42370Y-22536D01*
X42363Y-22525D01*
X42360Y-22513D01*
X42334Y-22482D01*
X42313Y-22450D01*
X42303Y-22443D01*
X42294Y-22433D01*
X42258Y-22413D01*
X42227Y-22392D01*
X42215Y-22390D01*
X42203Y-22384D01*
X42162Y-22380D01*
X42125Y-22372D01*
X42114Y-22375D01*
X42101Y-22373D01*
X41969Y-22386D01*
X41945Y-22328D01*
X41889Y-22272D01*
X41816Y-22241D01*
X41736Y-22241D01*
X41036Y-22241D01*
X40963Y-22271D01*
X40906Y-22328D01*
X40876Y-22401D01*
X40876Y-22481D01*
X40876Y-22731D01*
X40906Y-22804D01*
X40918Y-22816D01*
X40906Y-22828D01*
X40876Y-22901D01*
X40876Y-22914D01*
X40851Y-22925D01*
X40813Y-22953D01*
X40774Y-22979D01*
X40613Y-23140D01*
X40591Y-23174D01*
X40577Y-23188D01*
X40572Y-23201D01*
X40556Y-23226D01*
X40548Y-23267D01*
X40541Y-23285D01*
X40199Y-25420D01*
X40200Y-25441D01*
X40196Y-25462D01*
X40196Y-25962D01*
X40196Y-26420D01*
X40216Y-26522D01*
X40234Y-26565D01*
X40252Y-26593D01*
X40266Y-26622D01*
X41814Y-28698D01*
X40955Y-28698D01*
X40955Y-29676D01*
X41227Y-29676D01*
X41227Y-29742D01*
X41227Y-30529D01*
X41257Y-30602D01*
X41313Y-30658D01*
X41387Y-30689D01*
X41466Y-30689D01*
X42267Y-30689D01*
X42276Y-30703D01*
X42314Y-30741D01*
X42344Y-30761D01*
X42370Y-30784D01*
X42678Y-30960D01*
X42933Y-31216D01*
X43321Y-32660D01*
X43321Y-32795D01*
X43290Y-32721D01*
X43234Y-32665D01*
X43160Y-32635D01*
X43081Y-32635D01*
X42731Y-32635D01*
X42657Y-32665D01*
X42601Y-32721D01*
X42590Y-32748D01*
X42579Y-32721D01*
X42568Y-32710D01*
X42568Y-32263D01*
X42608Y-32263D01*
X42682Y-32233D01*
X42738Y-32176D01*
X42769Y-32103D01*
X42769Y-32023D01*
X42769Y-31236D01*
X42738Y-31163D01*
X42682Y-31107D01*
X42609Y-31076D01*
X42529Y-31076D01*
X42135Y-31076D01*
X42062Y-31106D01*
X42005Y-31163D01*
X41978Y-31229D01*
X41950Y-31163D01*
X41894Y-31107D01*
X41821Y-31076D01*
X41741Y-31076D01*
X41347Y-31076D01*
X41274Y-31106D01*
X41217Y-31163D01*
X41187Y-31236D01*
X41187Y-31316D01*
X41187Y-32103D01*
X41217Y-32176D01*
X41269Y-32228D01*
X41269Y-32635D01*
X41197Y-32665D01*
X41140Y-32721D01*
X41110Y-32795D01*
X41110Y-32874D01*
X41110Y-33424D01*
X41140Y-33498D01*
X41196Y-33554D01*
X41270Y-33585D01*
X41349Y-33585D01*
X41392Y-33585D01*
X41432Y-33645D01*
X40604Y-33645D01*
X40604Y-34623D01*
X41881Y-34623D01*
X41881Y-35268D01*
X41268Y-35268D01*
X41194Y-35298D01*
X41138Y-35355D01*
X41107Y-35428D01*
X40288Y-35428D01*
X40288Y-30914D01*
X40288Y-30465D01*
X40250Y-30373D01*
X40180Y-30303D01*
X40143Y-30287D01*
X40151Y-30284D01*
X40208Y-30228D01*
X40238Y-30154D01*
X40238Y-30075D01*
X40238Y-29725D01*
X40208Y-29651D01*
X40152Y-29595D01*
X40078Y-29564D01*
X40028Y-29564D01*
X40028Y-29096D01*
X40078Y-29096D01*
X40151Y-29066D01*
X40208Y-29009D01*
X40238Y-28936D01*
X40238Y-28856D01*
X40238Y-28506D01*
X40208Y-28433D01*
X40152Y-28377D01*
X40078Y-28346D01*
X40078Y-28346D01*
X40151Y-28316D01*
X40208Y-28259D01*
X40238Y-28186D01*
X40238Y-28106D01*
X40238Y-27756D01*
X40208Y-27683D01*
X40152Y-27627D01*
X40078Y-27596D01*
X39999Y-27596D01*
X39791Y-27596D01*
X39292Y-24847D01*
X39290Y-24843D01*
X39290Y-24833D01*
X38949Y-23400D01*
X38940Y-23381D01*
X38936Y-23360D01*
X38918Y-23317D01*
X38910Y-23306D01*
X38906Y-23291D01*
X38583Y-22700D01*
X38559Y-22671D01*
X38538Y-22640D01*
X38377Y-22479D01*
X38337Y-22452D01*
X38300Y-22425D01*
X38276Y-22414D01*
X38276Y-22401D01*
X38245Y-22328D01*
X38189Y-22272D01*
X38116Y-22241D01*
X38036Y-22241D01*
X37429Y-22241D01*
X36430Y-21565D01*
X36406Y-21554D01*
X36383Y-21540D01*
X36089Y-21418D01*
X36060Y-21412D01*
X36037Y-21403D01*
X35818Y-21362D01*
X35824Y-21348D01*
X35824Y-21268D01*
X35824Y-20818D01*
X35793Y-20745D01*
X35737Y-20688D01*
X35664Y-20658D01*
X35584Y-20658D01*
X35384Y-20658D01*
X35311Y-20688D01*
X35274Y-20725D01*
X35237Y-20688D01*
X35164Y-20658D01*
X35084Y-20658D01*
X34884Y-20658D01*
X34811Y-20688D01*
X34774Y-20725D01*
X34737Y-20688D01*
X34664Y-20658D01*
X34584Y-20658D01*
X34384Y-20658D01*
X34311Y-20688D01*
X34274Y-20725D01*
X34237Y-20688D01*
X34164Y-20658D01*
X34084Y-20658D01*
X33884Y-20658D01*
X33811Y-20688D01*
X33774Y-20725D01*
X33737Y-20688D01*
X33664Y-20658D01*
X33584Y-20658D01*
X33384Y-20658D01*
X33311Y-20688D01*
X33309Y-20690D01*
X33265Y-20646D01*
X33173Y-20608D01*
X33136Y-20608D01*
X33074Y-20670D01*
X33074Y-21033D01*
X33082Y-21033D01*
X33082Y-21133D01*
X33074Y-21133D01*
X33074Y-21495D01*
X33136Y-21558D01*
X33173Y-21558D01*
X33265Y-21520D01*
X33294Y-21491D01*
X33294Y-21527D01*
X33314Y-21628D01*
X33324Y-21654D01*
X33344Y-21683D01*
X33359Y-21713D01*
X33528Y-21934D01*
X33542Y-21947D01*
X33551Y-21961D01*
X33971Y-22381D01*
X34057Y-22438D01*
X34225Y-22508D01*
X34232Y-22509D01*
X34238Y-22513D01*
X34705Y-22679D01*
X34744Y-22685D01*
X34794Y-22695D01*
X35082Y-22695D01*
X35130Y-22714D01*
X35074Y-22770D01*
X35074Y-23133D01*
X35236Y-23133D01*
X35311Y-23133D01*
X35474Y-23133D01*
X35474Y-23125D01*
X35574Y-23125D01*
X35574Y-23133D01*
X35582Y-23133D01*
X35582Y-23233D01*
X35574Y-23233D01*
X35574Y-23595D01*
X35636Y-23658D01*
X35673Y-23658D01*
X35765Y-23620D01*
X35835Y-23550D01*
X35871Y-23463D01*
X36451Y-24841D01*
X36454Y-24845D01*
X36500Y-24957D01*
X36500Y-26169D01*
X36501Y-26175D01*
X36500Y-26182D01*
X36595Y-28203D01*
X36599Y-28218D01*
X36066Y-28218D01*
X36066Y-27629D01*
X36066Y-27150D01*
X36028Y-27058D01*
X35958Y-26988D01*
X35866Y-26949D01*
X35767Y-26949D01*
X35334Y-26949D01*
X35271Y-27012D01*
X35271Y-27339D01*
X36004Y-27339D01*
X36066Y-27277D01*
X36066Y-27150D01*
X36066Y-27629D01*
X36066Y-27502D01*
X36004Y-27439D01*
X35271Y-27439D01*
X35271Y-27767D01*
X35334Y-27829D01*
X35767Y-27829D01*
X35866Y-27829D01*
X35958Y-27791D01*
X36028Y-27721D01*
X36066Y-27629D01*
X36066Y-28218D01*
X35372Y-28218D01*
X35372Y-29196D01*
X37320Y-29196D01*
X37320Y-29764D01*
X37320Y-29804D01*
X37320Y-30154D01*
X37350Y-30228D01*
X37406Y-30284D01*
X37415Y-30287D01*
X37378Y-30303D01*
X37308Y-30373D01*
X37270Y-30465D01*
X37270Y-30577D01*
X37332Y-30639D01*
X37745Y-30639D01*
X37745Y-30632D01*
X37845Y-30632D01*
X37845Y-30639D01*
X38257Y-30639D01*
X38320Y-30577D01*
X38320Y-30465D01*
X38282Y-30373D01*
X38212Y-30303D01*
X38175Y-30287D01*
X38183Y-30284D01*
X38239Y-30228D01*
X38270Y-30154D01*
X38270Y-30075D01*
X38270Y-29725D01*
X38239Y-29651D01*
X38183Y-29595D01*
X38110Y-29564D01*
X38030Y-29564D01*
X37850Y-29564D01*
X37850Y-29086D01*
X37874Y-29096D01*
X37953Y-29096D01*
X38503Y-29096D01*
X38577Y-29066D01*
X38582Y-29060D01*
X38587Y-29065D01*
X38661Y-29096D01*
X38740Y-29096D01*
X39290Y-29096D01*
X39364Y-29066D01*
X39370Y-29060D01*
X39375Y-29065D01*
X39448Y-29096D01*
X39498Y-29096D01*
X39498Y-29564D01*
X39449Y-29564D01*
X39375Y-29595D01*
X39319Y-29651D01*
X39288Y-29725D01*
X39288Y-29804D01*
X39288Y-30154D01*
X39319Y-30228D01*
X39375Y-30284D01*
X39383Y-30287D01*
X39346Y-30303D01*
X39276Y-30373D01*
X39238Y-30465D01*
X39238Y-30577D01*
X39301Y-30639D01*
X39713Y-30639D01*
X39713Y-30632D01*
X39813Y-30632D01*
X39813Y-30639D01*
X40226Y-30639D01*
X40288Y-30577D01*
X40288Y-30465D01*
X40288Y-30914D01*
X40288Y-30802D01*
X40226Y-30739D01*
X39813Y-30739D01*
X39813Y-31052D01*
X39876Y-31114D01*
X39989Y-31115D01*
X40088Y-31114D01*
X40180Y-31076D01*
X40250Y-31006D01*
X40288Y-30914D01*
X40288Y-35428D01*
X39305Y-35428D01*
X39305Y-35348D01*
X39305Y-34370D01*
X37606Y-34370D01*
X37606Y-35348D01*
X39305Y-35348D01*
X39305Y-35428D01*
X35975Y-35428D01*
X35975Y-35172D01*
X36161Y-35172D01*
X36161Y-33807D01*
X35605Y-33807D01*
X35605Y-33166D01*
X34627Y-33166D01*
X34627Y-33358D01*
X34566Y-33358D01*
X34603Y-33268D01*
X34603Y-33168D01*
X34603Y-32717D01*
X34603Y-32618D01*
X34565Y-32526D01*
X34495Y-32456D01*
X34403Y-32418D01*
X34291Y-32418D01*
X34228Y-32480D01*
X34228Y-32893D01*
X34541Y-32893D01*
X34603Y-32830D01*
X34603Y-32717D01*
X34603Y-33168D01*
X34603Y-33055D01*
X34541Y-32993D01*
X34228Y-32993D01*
X34228Y-33000D01*
X34128Y-33000D01*
X34128Y-32993D01*
X34120Y-32993D01*
X34120Y-32893D01*
X34128Y-32893D01*
X34128Y-32480D01*
X34066Y-32418D01*
X33954Y-32418D01*
X33862Y-32456D01*
X33791Y-32526D01*
X33776Y-32562D01*
X33773Y-32554D01*
X33756Y-32538D01*
X33756Y-31818D01*
X32423Y-31818D01*
X32423Y-32796D01*
X33053Y-32796D01*
X33053Y-33257D01*
X33074Y-33308D01*
X33042Y-33308D01*
X33042Y-33370D01*
X32980Y-33308D01*
X32943Y-33308D01*
X32851Y-33346D01*
X32781Y-33416D01*
X32742Y-33508D01*
X32742Y-33607D01*
X32742Y-33670D01*
X32805Y-33733D01*
X33042Y-33733D01*
X33042Y-33725D01*
X33142Y-33725D01*
X33142Y-33733D01*
X33150Y-33733D01*
X33150Y-33833D01*
X33142Y-33833D01*
X33142Y-33841D01*
X33042Y-33841D01*
X33042Y-33833D01*
X32805Y-33833D01*
X32742Y-33895D01*
X32742Y-33958D01*
X32742Y-34046D01*
X32710Y-34033D01*
X32611Y-34033D01*
X32498Y-34033D01*
X32435Y-34095D01*
X32435Y-34408D01*
X32848Y-34408D01*
X32910Y-34345D01*
X32910Y-34244D01*
X32943Y-34258D01*
X32963Y-34258D01*
X32942Y-34308D01*
X32942Y-34407D01*
X32942Y-34720D01*
X33005Y-34783D01*
X33792Y-34783D01*
X33792Y-34775D01*
X33892Y-34775D01*
X33892Y-34783D01*
X34680Y-34783D01*
X34742Y-34720D01*
X34742Y-34574D01*
X35025Y-35177D01*
X35025Y-35183D01*
X35025Y-35434D01*
X34709Y-35458D01*
X34696Y-35458D01*
X34704Y-35450D01*
X34742Y-35358D01*
X34742Y-35258D01*
X34742Y-34945D01*
X34680Y-34883D01*
X33892Y-34883D01*
X33892Y-34891D01*
X33792Y-34891D01*
X33792Y-34883D01*
X33005Y-34883D01*
X32942Y-34945D01*
X32942Y-35258D01*
X32942Y-35358D01*
X32981Y-35450D01*
X32989Y-35458D01*
X32971Y-35458D01*
X32931Y-35457D01*
X32860Y-35337D01*
X32860Y-34993D01*
X32830Y-34920D01*
X32773Y-34863D01*
X32765Y-34860D01*
X32802Y-34845D01*
X32872Y-34774D01*
X32910Y-34682D01*
X32910Y-34570D01*
X32848Y-34508D01*
X32435Y-34508D01*
X32435Y-34516D01*
X32335Y-34516D01*
X32335Y-34508D01*
X32327Y-34508D01*
X32327Y-34408D01*
X32335Y-34408D01*
X32335Y-34095D01*
X32273Y-34033D01*
X32160Y-34033D01*
X32109Y-34033D01*
X32284Y-31081D01*
X33128Y-31081D01*
X33730Y-31391D01*
X33785Y-31407D01*
X33825Y-31419D01*
X33829Y-31420D01*
X33829Y-31420D01*
X33830Y-31420D01*
X35745Y-31614D01*
X35745Y-31691D01*
X35775Y-31765D01*
X35832Y-31821D01*
X35905Y-31852D01*
X35985Y-31852D01*
X36233Y-31852D01*
X36243Y-31866D01*
X36281Y-31904D01*
X36288Y-31909D01*
X36294Y-31917D01*
X36331Y-31938D01*
X36367Y-31962D01*
X36376Y-31964D01*
X36384Y-31968D01*
X37246Y-32257D01*
X37246Y-33359D01*
X37276Y-33433D01*
X37332Y-33489D01*
X37406Y-33519D01*
X37486Y-33519D01*
X39616Y-33519D01*
X39689Y-33489D01*
X39745Y-33433D01*
X39776Y-33359D01*
X39776Y-33280D01*
X39776Y-31940D01*
X39746Y-31866D01*
X39713Y-31834D01*
X39713Y-31052D01*
X39713Y-30739D01*
X39301Y-30739D01*
X39238Y-30802D01*
X39238Y-30914D01*
X39276Y-31006D01*
X39346Y-31076D01*
X39438Y-31114D01*
X39538Y-31115D01*
X39651Y-31114D01*
X39713Y-31052D01*
X39713Y-31834D01*
X39689Y-31810D01*
X39616Y-31779D01*
X39536Y-31779D01*
X38729Y-31779D01*
X38729Y-30901D01*
X38320Y-30901D01*
X38320Y-30802D01*
X38257Y-30739D01*
X37845Y-30739D01*
X37845Y-30747D01*
X37745Y-30747D01*
X37745Y-30739D01*
X37332Y-30739D01*
X37270Y-30802D01*
X37270Y-30901D01*
X36954Y-30901D01*
X36954Y-31600D01*
X36695Y-31513D01*
X36695Y-31262D01*
X36665Y-31189D01*
X36608Y-31132D01*
X36600Y-31129D01*
X36637Y-31114D01*
X36707Y-31043D01*
X36745Y-30951D01*
X36745Y-30502D01*
X36707Y-30410D01*
X36637Y-30340D01*
X36545Y-30302D01*
X36445Y-30302D01*
X36332Y-30302D01*
X36270Y-30364D01*
X36270Y-30677D01*
X36682Y-30677D01*
X36745Y-30614D01*
X36745Y-30502D01*
X36745Y-30951D01*
X36745Y-30839D01*
X36682Y-30777D01*
X36270Y-30777D01*
X36270Y-30785D01*
X36170Y-30785D01*
X36170Y-30777D01*
X36170Y-30677D01*
X36170Y-30364D01*
X36107Y-30302D01*
X35994Y-30302D01*
X35895Y-30302D01*
X35803Y-30340D01*
X35733Y-30410D01*
X35695Y-30502D01*
X35695Y-30614D01*
X35757Y-30677D01*
X36170Y-30677D01*
X36170Y-30777D01*
X35757Y-30777D01*
X35695Y-30839D01*
X35695Y-30951D01*
X35733Y-31043D01*
X35774Y-31085D01*
X35357Y-31042D01*
X35377Y-31022D01*
X35415Y-30931D01*
X35416Y-30831D01*
X35416Y-30130D01*
X35415Y-30031D01*
X35377Y-29939D01*
X35307Y-29869D01*
X35215Y-29831D01*
X35171Y-29831D01*
X35171Y-27767D01*
X35171Y-27439D01*
X35171Y-27339D01*
X35171Y-27012D01*
X35109Y-26949D01*
X34676Y-26949D01*
X34576Y-26949D01*
X34484Y-26988D01*
X34414Y-27058D01*
X34376Y-27150D01*
X34376Y-27277D01*
X34439Y-27339D01*
X35171Y-27339D01*
X35171Y-27439D01*
X34439Y-27439D01*
X34376Y-27502D01*
X34376Y-27629D01*
X34414Y-27721D01*
X34484Y-27791D01*
X34576Y-27829D01*
X34676Y-27829D01*
X35109Y-27829D01*
X35171Y-27767D01*
X35171Y-29831D01*
X34678Y-29831D01*
X34616Y-29893D01*
X34616Y-30431D01*
X35353Y-30431D01*
X35416Y-30368D01*
X35416Y-30130D01*
X35416Y-30831D01*
X35416Y-30593D01*
X35353Y-30531D01*
X34616Y-30531D01*
X34616Y-30539D01*
X34516Y-30539D01*
X34516Y-30531D01*
X34516Y-30431D01*
X34516Y-29893D01*
X34453Y-29831D01*
X33916Y-29831D01*
X33824Y-29869D01*
X33754Y-29939D01*
X33716Y-30031D01*
X33715Y-30130D01*
X33716Y-30368D01*
X33778Y-30431D01*
X34516Y-30431D01*
X34516Y-30531D01*
X33778Y-30531D01*
X33716Y-30593D01*
X33715Y-30787D01*
X33366Y-30607D01*
X33366Y-30098D01*
X34164Y-27780D01*
X34174Y-27703D01*
X34176Y-27693D01*
X34176Y-27689D01*
X34178Y-27678D01*
X34176Y-27672D01*
X34176Y-27465D01*
X34176Y-27089D01*
X34176Y-27089D01*
X34176Y-27088D01*
X34176Y-27085D01*
X34167Y-27041D01*
X34157Y-26987D01*
X34156Y-26985D01*
X34156Y-26984D01*
X34131Y-26947D01*
X34113Y-26918D01*
X34426Y-26450D01*
X34426Y-26619D01*
X34456Y-26693D01*
X34513Y-26749D01*
X34586Y-26779D01*
X34666Y-26779D01*
X35856Y-26779D01*
X35929Y-26749D01*
X35985Y-26693D01*
X36016Y-26619D01*
X36016Y-26540D01*
X36016Y-26461D01*
X36030Y-26452D01*
X36068Y-26414D01*
X36070Y-26411D01*
X36072Y-26410D01*
X36099Y-26368D01*
X36126Y-26328D01*
X36126Y-26325D01*
X36128Y-26323D01*
X36336Y-25789D01*
X36346Y-25732D01*
X36354Y-25692D01*
X36354Y-25688D01*
X36354Y-25687D01*
X36354Y-25686D01*
X36354Y-25466D01*
X36354Y-25086D01*
X36354Y-25086D01*
X36354Y-25086D01*
X36334Y-24985D01*
X36276Y-24899D01*
X36276Y-24899D01*
X36116Y-24739D01*
X36085Y-24718D01*
X36056Y-24694D01*
X36042Y-24689D01*
X36031Y-24682D01*
X35993Y-24674D01*
X35957Y-24663D01*
X35597Y-24624D01*
X35597Y-24095D01*
X35566Y-24021D01*
X35510Y-23965D01*
X35474Y-23950D01*
X35474Y-23595D01*
X35474Y-23233D01*
X35311Y-23233D01*
X35236Y-23233D01*
X35074Y-23233D01*
X35074Y-23595D01*
X35136Y-23658D01*
X35173Y-23658D01*
X35265Y-23620D01*
X35274Y-23611D01*
X35282Y-23620D01*
X35374Y-23658D01*
X35411Y-23658D01*
X35474Y-23595D01*
X35474Y-23950D01*
X35436Y-23935D01*
X35357Y-23934D01*
X34757Y-23934D01*
X34728Y-23946D01*
X34753Y-23649D01*
X34751Y-23639D01*
X34754Y-23627D01*
X34754Y-23591D01*
X34782Y-23620D01*
X34874Y-23658D01*
X34911Y-23658D01*
X34974Y-23595D01*
X34974Y-23233D01*
X34966Y-23233D01*
X34966Y-23133D01*
X34974Y-23133D01*
X34974Y-22770D01*
X34911Y-22708D01*
X34874Y-22708D01*
X34782Y-22746D01*
X34738Y-22790D01*
X34737Y-22788D01*
X34664Y-22758D01*
X34584Y-22758D01*
X34384Y-22758D01*
X34311Y-22788D01*
X34274Y-22825D01*
X34237Y-22788D01*
X34164Y-22758D01*
X34084Y-22758D01*
X33884Y-22758D01*
X33811Y-22788D01*
X33809Y-22790D01*
X33765Y-22746D01*
X33673Y-22708D01*
X33636Y-22708D01*
X33574Y-22770D01*
X33574Y-23133D01*
X33582Y-23133D01*
X33582Y-23233D01*
X33574Y-23233D01*
X33574Y-23241D01*
X33474Y-23241D01*
X33474Y-23233D01*
X33466Y-23233D01*
X33466Y-23133D01*
X33474Y-23133D01*
X33474Y-22770D01*
X33411Y-22708D01*
X33374Y-22708D01*
X33282Y-22746D01*
X33238Y-22790D01*
X33237Y-22788D01*
X33164Y-22758D01*
X33084Y-22758D01*
X32884Y-22758D01*
X32811Y-22788D01*
X32774Y-22825D01*
X32737Y-22788D01*
X32664Y-22758D01*
X32584Y-22758D01*
X32466Y-22758D01*
X32466Y-22715D01*
X31588Y-22715D01*
X32517Y-21508D01*
X32663Y-21508D01*
X32737Y-21478D01*
X32738Y-21476D01*
X32782Y-21520D01*
X32874Y-21558D01*
X32911Y-21558D01*
X32974Y-21495D01*
X32974Y-21133D01*
X32966Y-21133D01*
X32966Y-21033D01*
X32974Y-21033D01*
X32974Y-20670D01*
X32911Y-20608D01*
X32874Y-20608D01*
X32782Y-20646D01*
X32738Y-20690D01*
X32737Y-20688D01*
X32664Y-20658D01*
X32584Y-20658D01*
X32384Y-20658D01*
X32311Y-20688D01*
X32254Y-20744D01*
X32224Y-20818D01*
X32224Y-20897D01*
X32224Y-21046D01*
X32209Y-21056D01*
X32209Y-21056D01*
X32171Y-21094D01*
X32163Y-21106D01*
X32148Y-21119D01*
X31445Y-22031D01*
X31445Y-21479D01*
X31444Y-21030D01*
X31275Y-20623D01*
X31119Y-20525D01*
X30385Y-21259D01*
X31119Y-21994D01*
X31275Y-21895D01*
X31445Y-21479D01*
X31445Y-22031D01*
X31049Y-22546D01*
X31049Y-22064D01*
X30314Y-21330D01*
X29580Y-22064D01*
X29678Y-22220D01*
X30094Y-22390D01*
X30544Y-22388D01*
X30951Y-22220D01*
X31049Y-22064D01*
X31049Y-22546D01*
X30684Y-23020D01*
X30389Y-23020D01*
X30316Y-23050D01*
X30260Y-23106D01*
X30256Y-23114D01*
X30241Y-23078D01*
X30170Y-23007D01*
X30079Y-22969D01*
X29967Y-22970D01*
X29904Y-23032D01*
X29904Y-23445D01*
X29912Y-23445D01*
X29912Y-23545D01*
X29904Y-23545D01*
X29904Y-23957D01*
X29967Y-24020D01*
X30079Y-24020D01*
X30147Y-23991D01*
X30088Y-24165D01*
X30068Y-24173D01*
X30012Y-24229D01*
X29981Y-24303D01*
X29981Y-24382D01*
X29981Y-24982D01*
X30011Y-25056D01*
X30051Y-25096D01*
X30051Y-25162D01*
X30071Y-25263D01*
X30082Y-25289D01*
X30139Y-25375D01*
X30139Y-25375D01*
X30449Y-25685D01*
X30467Y-25697D01*
X30482Y-25713D01*
X30821Y-25955D01*
X30838Y-25963D01*
X30852Y-25974D01*
X31128Y-26119D01*
X31441Y-26323D01*
X31852Y-26734D01*
X31831Y-26755D01*
X31831Y-27193D01*
X32069Y-27193D01*
X32131Y-27130D01*
X32131Y-27013D01*
X32149Y-27031D01*
X32174Y-27048D01*
X32195Y-27068D01*
X32216Y-27076D01*
X32235Y-27089D01*
X32264Y-27095D01*
X32272Y-27098D01*
X32246Y-27159D01*
X32246Y-27239D01*
X32246Y-27312D01*
X32131Y-27395D01*
X32131Y-27355D01*
X32069Y-27293D01*
X31831Y-27293D01*
X31831Y-27301D01*
X31731Y-27301D01*
X31731Y-27293D01*
X31723Y-27293D01*
X31723Y-27193D01*
X31731Y-27193D01*
X31731Y-26755D01*
X31669Y-26693D01*
X31632Y-26693D01*
X31540Y-26731D01*
X31497Y-26773D01*
X31490Y-26700D01*
X31478Y-26663D01*
X31471Y-26626D01*
X31464Y-26608D01*
X31464Y-26608D01*
X31459Y-26602D01*
X31459Y-26601D01*
X31458Y-26600D01*
X31458Y-26600D01*
X31445Y-26580D01*
X31406Y-26522D01*
X31406Y-26522D01*
X31102Y-26218D01*
X31102Y-26218D01*
X31037Y-26174D01*
X31031Y-26169D01*
X31027Y-26168D01*
X31016Y-26160D01*
X30998Y-26153D01*
X30966Y-26147D01*
X30934Y-26135D01*
X30511Y-26075D01*
X30492Y-26076D01*
X30473Y-26072D01*
X30019Y-26072D01*
X30019Y-26072D01*
X29917Y-26093D01*
X29877Y-26109D01*
X29877Y-26109D01*
X29804Y-26158D01*
X29804Y-23957D01*
X29804Y-23545D01*
X29804Y-23445D01*
X29804Y-23032D01*
X29742Y-22970D01*
X29630Y-22969D01*
X29538Y-23007D01*
X29467Y-23078D01*
X29429Y-23170D01*
X29429Y-23269D01*
X29429Y-23382D01*
X29492Y-23445D01*
X29804Y-23445D01*
X29804Y-23545D01*
X29492Y-23545D01*
X29429Y-23607D01*
X29429Y-23720D01*
X29429Y-23819D01*
X29467Y-23911D01*
X29538Y-23982D01*
X29630Y-24020D01*
X29742Y-24020D01*
X29804Y-23957D01*
X29804Y-26158D01*
X29791Y-26167D01*
X29470Y-26488D01*
X29460Y-26503D01*
X29446Y-26515D01*
X29424Y-26544D01*
X29409Y-26574D01*
X29391Y-26603D01*
X29382Y-26624D01*
X29379Y-26637D01*
X29379Y-26637D01*
X29379Y-26637D01*
X29361Y-26726D01*
X29361Y-27326D01*
X29361Y-27760D01*
X29363Y-27770D01*
X29362Y-27780D01*
X29392Y-28164D01*
X29392Y-28318D01*
X29392Y-28728D01*
X29355Y-29114D01*
X29356Y-29126D01*
X29353Y-29139D01*
X29353Y-29716D01*
X29357Y-29733D01*
X29356Y-29751D01*
X29618Y-31668D01*
X29630Y-31701D01*
X29634Y-31724D01*
X30103Y-32980D01*
X30044Y-33039D01*
X29957Y-33250D01*
X29957Y-33478D01*
X30044Y-33689D01*
X30205Y-33851D01*
X30416Y-33938D01*
X30645Y-33938D01*
X30856Y-33851D01*
X31017Y-33690D01*
X31105Y-33479D01*
X31105Y-33251D01*
X31018Y-33039D01*
X30856Y-32878D01*
X30646Y-32790D01*
X30598Y-32790D01*
X30268Y-31908D01*
X30416Y-31970D01*
X30645Y-31970D01*
X30856Y-31883D01*
X31017Y-31721D01*
X31105Y-31510D01*
X31105Y-31282D01*
X31018Y-31071D01*
X30856Y-30909D01*
X30646Y-30822D01*
X30609Y-30822D01*
X30306Y-29955D01*
X30416Y-30001D01*
X30645Y-30001D01*
X30856Y-29914D01*
X30872Y-29898D01*
X31765Y-30354D01*
X31765Y-30887D01*
X31764Y-30892D01*
X31570Y-34153D01*
X31571Y-34156D01*
X31570Y-34160D01*
X31495Y-36298D01*
X31159Y-36298D01*
X31159Y-35432D01*
X31149Y-35184D01*
X31073Y-35000D01*
X30970Y-34964D01*
X30900Y-35035D01*
X30900Y-34893D01*
X30863Y-34790D01*
X30630Y-34704D01*
X30382Y-34714D01*
X30198Y-34790D01*
X30162Y-34893D01*
X30531Y-35262D01*
X30900Y-34893D01*
X30900Y-35035D01*
X30602Y-35333D01*
X30970Y-35702D01*
X31073Y-35665D01*
X31159Y-35432D01*
X31159Y-36298D01*
X30900Y-36298D01*
X30900Y-35772D01*
X30531Y-35403D01*
X30460Y-35474D01*
X30460Y-35333D01*
X30091Y-34964D01*
X29988Y-35000D01*
X29902Y-35233D01*
X29912Y-35481D01*
X29988Y-35665D01*
X30091Y-35702D01*
X30460Y-35333D01*
X30460Y-35474D01*
X30162Y-35772D01*
X30198Y-35875D01*
X30431Y-35961D01*
X30679Y-35951D01*
X30863Y-35875D01*
X30900Y-35772D01*
X30900Y-36298D01*
X30462Y-36298D01*
X30462Y-36886D01*
X30314Y-36886D01*
X30314Y-37452D01*
X30085Y-37453D01*
X29678Y-37622D01*
X29580Y-37777D01*
X30314Y-38511D01*
X30320Y-38506D01*
X30391Y-38577D01*
X30385Y-38582D01*
X31119Y-39317D01*
X31275Y-39218D01*
X31445Y-38802D01*
X31444Y-38353D01*
X31275Y-37946D01*
X31145Y-37864D01*
X31493Y-37864D01*
X31493Y-38104D01*
X31493Y-38332D01*
X31493Y-38332D01*
X31513Y-38434D01*
X31571Y-38520D01*
X31732Y-38681D01*
X31732Y-38681D01*
X31818Y-38738D01*
X31919Y-38758D01*
X32269Y-38758D01*
X32497Y-38758D01*
X32523Y-38753D01*
X32549Y-38753D01*
X32573Y-38743D01*
X32598Y-38738D01*
X32620Y-38723D01*
X32645Y-38713D01*
X32958Y-38503D01*
X32975Y-38486D01*
X32997Y-38471D01*
X33035Y-38433D01*
X33035Y-38433D01*
X33035Y-38433D01*
X33045Y-38418D01*
X33173Y-38418D01*
X33246Y-38388D01*
X33302Y-38332D01*
X33333Y-38258D01*
X33333Y-38179D01*
X33333Y-37629D01*
X33303Y-37555D01*
X33246Y-37499D01*
X33223Y-37489D01*
X33223Y-37216D01*
X33246Y-37207D01*
X33302Y-37151D01*
X33333Y-37077D01*
X33333Y-36998D01*
X33333Y-36749D01*
X33347Y-36740D01*
X33385Y-36701D01*
X33388Y-36698D01*
X33391Y-36696D01*
X33744Y-36323D01*
X33745Y-36322D01*
X33746Y-36320D01*
X33750Y-36317D01*
X33763Y-36295D01*
X33806Y-36277D01*
X33842Y-36241D01*
X33879Y-36277D01*
X33906Y-36288D01*
X34005Y-36508D01*
X34005Y-36517D01*
X34005Y-37217D01*
X34035Y-37291D01*
X34091Y-37347D01*
X34138Y-37367D01*
X34138Y-37835D01*
X34063Y-37866D01*
X33993Y-37936D01*
X33955Y-38028D01*
X33955Y-38315D01*
X34017Y-38378D01*
X34580Y-38378D01*
X34580Y-38370D01*
X34680Y-38370D01*
X34680Y-38378D01*
X35242Y-38378D01*
X35305Y-38315D01*
X35305Y-38028D01*
X35267Y-37936D01*
X35197Y-37866D01*
X35116Y-37833D01*
X35116Y-37369D01*
X35168Y-37347D01*
X35224Y-37291D01*
X35255Y-37218D01*
X35255Y-37138D01*
X35255Y-36740D01*
X35269Y-36730D01*
X35307Y-36692D01*
X35312Y-36685D01*
X35319Y-36680D01*
X35516Y-36456D01*
X35524Y-36443D01*
X35815Y-36443D01*
X35815Y-36443D01*
X37246Y-36443D01*
X37246Y-37359D01*
X37276Y-37433D01*
X37332Y-37489D01*
X37406Y-37519D01*
X37486Y-37519D01*
X39616Y-37519D01*
X39689Y-37489D01*
X39745Y-37433D01*
X39776Y-37359D01*
X39776Y-37280D01*
X39776Y-35958D01*
X41107Y-35958D01*
X41107Y-36308D01*
X41138Y-36381D01*
X41194Y-36438D01*
X41267Y-36468D01*
X41347Y-36468D01*
X42222Y-36468D01*
X42506Y-37290D01*
X42467Y-37306D01*
X42130Y-37643D01*
X41957Y-38060D01*
X41766Y-37601D01*
X41766Y-37601D01*
X41598Y-37488D01*
X41528Y-37559D01*
X41528Y-37418D01*
X41415Y-37250D01*
X40955Y-37059D01*
X40458Y-37059D01*
X39999Y-37249D01*
X39998Y-37250D01*
X39886Y-37418D01*
X40707Y-38238D01*
X41528Y-37418D01*
X41528Y-37559D01*
X40777Y-38309D01*
X41598Y-39130D01*
X41766Y-39017D01*
X41951Y-38572D01*
X42128Y-39003D01*
X42466Y-39341D01*
X42907Y-39524D01*
X43384Y-39524D01*
X43825Y-39342D01*
X44163Y-39005D01*
X44346Y-38564D01*
X44347Y-38086D01*
X44164Y-37645D01*
X43857Y-37338D01*
X43857Y-36456D01*
X43857Y-35918D01*
X43120Y-35918D01*
X43057Y-35981D01*
X43057Y-36219D01*
X43057Y-36318D01*
X43095Y-36410D01*
X43166Y-36480D01*
X43258Y-36518D01*
X43795Y-36518D01*
X43857Y-36456D01*
X43857Y-37338D01*
X43827Y-37307D01*
X43386Y-37124D01*
X43010Y-37124D01*
X42707Y-36250D01*
X42707Y-36228D01*
X42707Y-35428D01*
X42698Y-35406D01*
X43062Y-35406D01*
X43057Y-35418D01*
X43057Y-35518D01*
X43057Y-35756D01*
X43120Y-35818D01*
X43857Y-35818D01*
X43857Y-35281D01*
X43834Y-35257D01*
X43834Y-34428D01*
X43675Y-34428D01*
X43701Y-34364D01*
X43701Y-34265D01*
X43701Y-34152D01*
X43639Y-34090D01*
X43326Y-34090D01*
X43326Y-34097D01*
X43226Y-34097D01*
X43226Y-34090D01*
X43218Y-34090D01*
X43218Y-33990D01*
X43226Y-33990D01*
X43226Y-33577D01*
X43212Y-33563D01*
X43234Y-33554D01*
X43290Y-33498D01*
X43320Y-33425D01*
X43320Y-33424D01*
X43351Y-33498D01*
X43378Y-33525D01*
X43326Y-33577D01*
X43326Y-33990D01*
X43639Y-33990D01*
X43701Y-33927D01*
X43701Y-33814D01*
X43701Y-33715D01*
X43663Y-33623D01*
X43625Y-33585D01*
X43755Y-33585D01*
X44628Y-35248D01*
X44557Y-35218D01*
X44020Y-35218D01*
X43957Y-35281D01*
X43957Y-35818D01*
X43965Y-35818D01*
X43965Y-35918D01*
X43957Y-35918D01*
X43957Y-36456D01*
X44020Y-36518D01*
X44557Y-36518D01*
X44649Y-36480D01*
X44719Y-36410D01*
X44757Y-36318D01*
X44757Y-36219D01*
X44757Y-36197D01*
X44791Y-36211D01*
X44870Y-36211D01*
X45095Y-36211D01*
X45095Y-36884D01*
X46520Y-36884D01*
X46520Y-36211D01*
X46770Y-36211D01*
X46844Y-36181D01*
X46900Y-36125D01*
X46931Y-36051D01*
X46931Y-35972D01*
X46931Y-35172D01*
X46900Y-35098D01*
X46844Y-35042D01*
X46835Y-35038D01*
X46835Y-34365D01*
X46845Y-34365D01*
X46918Y-34334D01*
X46975Y-34278D01*
X47005Y-34205D01*
X47005Y-34125D01*
X47005Y-33725D01*
X46975Y-33651D01*
X46918Y-33595D01*
X46845Y-33565D01*
X46765Y-33565D01*
X46465Y-33565D01*
X46392Y-33595D01*
X46336Y-33651D01*
X46332Y-33661D01*
X46305Y-33598D01*
X46235Y-33527D01*
X46143Y-33489D01*
X46056Y-33489D01*
X45994Y-33552D01*
X45994Y-33889D01*
X46001Y-33889D01*
X46001Y-33989D01*
X45994Y-33989D01*
X45994Y-34327D01*
X46056Y-34389D01*
X46143Y-34389D01*
X46235Y-34351D01*
X46305Y-34282D01*
X46305Y-34920D01*
X45767Y-34389D01*
X45831Y-34389D01*
X45894Y-34327D01*
X45894Y-33989D01*
X45894Y-33889D01*
X45894Y-33552D01*
X45831Y-33489D01*
X45744Y-33489D01*
X45652Y-33527D01*
X45582Y-33598D01*
X45544Y-33689D01*
X45544Y-33789D01*
X45544Y-33827D01*
X45606Y-33889D01*
X45894Y-33889D01*
X45894Y-33989D01*
X45606Y-33989D01*
X45544Y-34052D01*
X45544Y-34090D01*
X45544Y-34169D01*
X45257Y-33886D01*
X45244Y-33877D01*
X45244Y-33700D01*
X45213Y-33626D01*
X45157Y-33570D01*
X45084Y-33539D01*
X45004Y-33539D01*
X44704Y-33539D01*
X44630Y-33570D01*
X44574Y-33626D01*
X44544Y-33699D01*
X44544Y-33779D01*
X44544Y-33946D01*
X44319Y-33519D01*
X44751Y-33519D01*
X44751Y-32319D01*
X44920Y-32319D01*
X45147Y-32319D01*
X45162Y-32317D01*
X45177Y-32318D01*
X45212Y-32307D01*
X45249Y-32299D01*
X45261Y-32291D01*
X45275Y-32287D01*
X45563Y-32128D01*
X45563Y-32559D01*
X46541Y-32559D01*
X46541Y-32005D01*
X46835Y-32005D01*
X46908Y-31974D01*
X46965Y-31918D01*
X46995Y-31845D01*
X46995Y-31765D01*
X46995Y-31365D01*
X46965Y-31291D01*
X46908Y-31235D01*
X46835Y-31205D01*
X46804Y-31205D01*
X46495Y-30515D01*
X47355Y-31479D01*
X47355Y-31760D01*
X47213Y-31760D01*
X47213Y-32529D01*
X48191Y-32529D01*
X48191Y-37764D01*
X48173Y-37752D01*
X48105Y-37820D01*
X48105Y-34115D01*
X48105Y-33814D01*
X48105Y-33715D01*
X48067Y-33623D01*
X47996Y-33553D01*
X47905Y-33515D01*
X47818Y-33515D01*
X47755Y-33577D01*
X47755Y-33915D01*
X48043Y-33915D01*
X48105Y-33852D01*
X48105Y-33814D01*
X48105Y-34115D01*
X48105Y-34077D01*
X48043Y-34015D01*
X47755Y-34015D01*
X47755Y-34352D01*
X47818Y-34415D01*
X47905Y-34415D01*
X47996Y-34377D01*
X48067Y-34306D01*
X48105Y-34215D01*
X48105Y-34115D01*
X48105Y-37820D01*
X48102Y-37823D01*
X48102Y-37682D01*
X48004Y-37526D01*
X47655Y-37383D01*
X47655Y-34352D01*
X47655Y-34015D01*
X47655Y-33915D01*
X47655Y-33577D01*
X47593Y-33515D01*
X47506Y-33515D01*
X47414Y-33553D01*
X47343Y-33623D01*
X47305Y-33715D01*
X47305Y-33814D01*
X47305Y-33852D01*
X47368Y-33915D01*
X47655Y-33915D01*
X47655Y-34015D01*
X47368Y-34015D01*
X47305Y-34077D01*
X47305Y-34115D01*
X47305Y-34215D01*
X47343Y-34306D01*
X47414Y-34377D01*
X47506Y-34415D01*
X47593Y-34415D01*
X47655Y-34352D01*
X47655Y-37383D01*
X47588Y-37356D01*
X47139Y-37357D01*
X46732Y-37526D01*
X46634Y-37682D01*
X47368Y-38416D01*
X48102Y-37682D01*
X48102Y-37823D01*
X47439Y-38487D01*
X48173Y-39221D01*
X48329Y-39123D01*
X48499Y-38707D01*
X48499Y-39544D01*
X47771Y-39544D01*
X48004Y-39447D01*
X48102Y-39292D01*
X47368Y-38557D01*
X47297Y-38628D01*
X47297Y-38487D01*
X46563Y-37752D01*
X46407Y-37850D01*
X46237Y-38266D01*
X46239Y-38716D01*
X46407Y-39123D01*
X46563Y-39221D01*
X47297Y-38487D01*
X47297Y-38628D01*
X46634Y-39292D01*
X46732Y-39447D01*
X46967Y-39544D01*
X40993Y-39544D01*
X41415Y-39369D01*
X41415Y-39369D01*
X41528Y-39201D01*
X40707Y-38380D01*
X40636Y-38451D01*
X40636Y-38309D01*
X39815Y-37488D01*
X39647Y-37601D01*
X39457Y-38061D01*
X39457Y-38558D01*
X39647Y-39017D01*
X39647Y-39017D01*
X39815Y-39130D01*
X40636Y-38309D01*
X40636Y-38451D01*
X39886Y-39201D01*
X39998Y-39369D01*
X40420Y-39544D01*
X35305Y-39544D01*
X35305Y-38827D01*
X35305Y-38540D01*
X35242Y-38478D01*
X34680Y-38478D01*
X34680Y-38965D01*
X34742Y-39028D01*
X35005Y-39028D01*
X35105Y-39028D01*
X35197Y-38990D01*
X35267Y-38919D01*
X35305Y-38827D01*
X35305Y-39544D01*
X34580Y-39544D01*
X34580Y-38965D01*
X34580Y-38478D01*
X34017Y-38478D01*
X33955Y-38540D01*
X33955Y-38827D01*
X33993Y-38919D01*
X34063Y-38990D01*
X34155Y-39028D01*
X34254Y-39028D01*
X34517Y-39028D01*
X34580Y-38965D01*
X34580Y-39544D01*
X30949Y-39544D01*
X30951Y-39543D01*
X31049Y-39387D01*
X30314Y-38653D01*
X29580Y-39387D01*
X29678Y-39543D01*
X29680Y-39544D01*
X29353Y-39544D01*
X29353Y-39216D01*
X29354Y-39218D01*
X29509Y-39317D01*
X30244Y-38582D01*
X29509Y-37848D01*
X29354Y-37946D01*
X29353Y-37948D01*
X29353Y-21894D01*
X29354Y-21895D01*
X29509Y-21994D01*
X30244Y-21259D01*
X29509Y-20525D01*
X29354Y-20623D01*
X29353Y-20625D01*
X29353Y-20298D01*
X29680Y-20298D01*
X29678Y-20299D01*
X29580Y-20454D01*
X30314Y-21189D01*
X31049Y-20454D01*
X30951Y-20299D01*
X30949Y-20298D01*
X36559Y-20298D01*
X36559Y-21256D01*
X43440Y-21256D01*
X43440Y-20298D01*
X44641Y-20298D01*
X44639Y-20299D01*
X44541Y-20454D01*
X45275Y-21189D01*
X46009Y-20454D01*
X45911Y-20299D01*
X45909Y-20298D01*
X48599Y-20298D01*
X48599Y-21331D01*
X46598Y-21331D01*
X46525Y-21361D01*
X46469Y-21418D01*
X46438Y-21491D01*
X46438Y-21571D01*
X46438Y-23371D01*
X46468Y-23444D01*
X46525Y-23500D01*
X46598Y-23531D01*
X46678Y-23531D01*
X48599Y-23531D01*
X48599Y-27231D01*
X46598Y-27231D01*
X46525Y-27261D01*
X46469Y-27318D01*
X46438Y-27391D01*
X46438Y-27471D01*
X46438Y-29271D01*
X46468Y-29344D01*
X46525Y-29400D01*
X46598Y-29431D01*
X46678Y-29431D01*
X48599Y-29431D01*
X48599Y-39544D01*
M02*
