G04 (created by PCBNEW (2013-jul-07)-stable) date Wed 08 Apr 2015 04:26:49 PM EDT*
%MOIN*%
G04 Gerber Fmt 3.4, Leading zero omitted, Abs format*
%FSLAX34Y34*%
G01*
G70*
G90*
G04 APERTURE LIST*
%ADD10C,0.00590551*%
%ADD11C,0.00393701*%
%ADD12R,0.02X0.06*%
%ADD13R,0.02X0.045*%
%ADD14R,0.205X0.18*%
%ADD15R,0.187X0.025*%
%ADD16R,0.035X0.055*%
%ADD17R,0.119X0.038*%
%ADD18R,0.07X0.025*%
%ADD19C,0.0748031*%
%ADD20R,0.055X0.035*%
%ADD21C,0.176*%
%ADD22R,0.13X0.095*%
%ADD23R,0.06X0.08*%
%ADD24R,0.12X0.08*%
%ADD25R,0.085X0.07*%
%ADD26R,0.1102X0.0787*%
%ADD27R,0.0394X0.0787*%
%ADD28R,0.03X0.04*%
%ADD29C,0.2*%
%ADD30R,0.213X0.134*%
G04 APERTURE END LIST*
G54D10*
G54D11*
X48818Y-39763D02*
X48818Y-20078D01*
X29133Y-39763D02*
X48818Y-39763D01*
X29133Y-20078D02*
X29133Y-39763D01*
X48818Y-20078D02*
X29133Y-20078D01*
G54D12*
X30281Y-24643D03*
X30781Y-24643D03*
X31281Y-24643D03*
X31781Y-24643D03*
X31781Y-27243D03*
X31281Y-27243D03*
X30781Y-27243D03*
X30281Y-27243D03*
G54D13*
X32524Y-23183D03*
X33024Y-23183D03*
X33524Y-23183D03*
X34024Y-23183D03*
X34524Y-23183D03*
X35024Y-23183D03*
X35524Y-23183D03*
X35524Y-21083D03*
X35024Y-21083D03*
X34524Y-21083D03*
X34024Y-21083D03*
X33524Y-21083D03*
X33024Y-21083D03*
X32524Y-21083D03*
G54D14*
X47663Y-22431D03*
G54D15*
X43113Y-23631D03*
X43113Y-24131D03*
X43113Y-24631D03*
X43113Y-25131D03*
X43113Y-25631D03*
X43113Y-26131D03*
X43113Y-26631D03*
X43113Y-27131D03*
G54D14*
X47663Y-28331D03*
G54D16*
X30604Y-23495D03*
X29854Y-23495D03*
G54D17*
X35221Y-25389D03*
X35221Y-26389D03*
X35221Y-27389D03*
X33041Y-25389D03*
X33041Y-26389D03*
X33041Y-27389D03*
G54D18*
X41426Y-26066D03*
X41426Y-25566D03*
X41426Y-25066D03*
X41426Y-24566D03*
X41426Y-24066D03*
X41426Y-23566D03*
X41426Y-23066D03*
X41426Y-22566D03*
X37726Y-22566D03*
X37726Y-23066D03*
X37726Y-23566D03*
X37726Y-24066D03*
X37726Y-24566D03*
X37726Y-25066D03*
X37726Y-25566D03*
X37726Y-26066D03*
G54D19*
X30531Y-29427D03*
X30531Y-31396D03*
X30531Y-33364D03*
X30531Y-35333D03*
G54D20*
X32675Y-24595D03*
X32675Y-23845D03*
G54D21*
X47368Y-38487D03*
G54D13*
X34592Y-35883D03*
X34592Y-33783D03*
X34092Y-35883D03*
X33592Y-35883D03*
X33092Y-35883D03*
X34092Y-33783D03*
X33592Y-33783D03*
X33092Y-33783D03*
G54D22*
X33842Y-34833D03*
G54D23*
X45131Y-35611D03*
X46431Y-35611D03*
G54D16*
X45726Y-30837D03*
X44976Y-30837D03*
X45795Y-29352D03*
X45045Y-29352D03*
X32208Y-37943D03*
X32958Y-37943D03*
X34178Y-32943D03*
X33428Y-32943D03*
X32208Y-36762D03*
X32958Y-36762D03*
X42235Y-33110D03*
X41485Y-33110D03*
X43696Y-33110D03*
X42946Y-33110D03*
X35662Y-32949D03*
X34912Y-32949D03*
G54D20*
X35500Y-36068D03*
X35500Y-35318D03*
X32385Y-35208D03*
X32385Y-34458D03*
G54D24*
X41907Y-35868D03*
X43907Y-35868D03*
G54D25*
X34630Y-38428D03*
X34630Y-36828D03*
G54D26*
X41978Y-30096D03*
G54D27*
X42372Y-31670D03*
X41584Y-31670D03*
G54D28*
X45944Y-33939D03*
X44894Y-33939D03*
X45944Y-31579D03*
X44884Y-31579D03*
X47705Y-33965D03*
X46655Y-33965D03*
X47705Y-31605D03*
X46645Y-31605D03*
G54D29*
X40707Y-38309D03*
X43146Y-38324D03*
G54D30*
X38511Y-36649D03*
X38511Y-32649D03*
G54D24*
X32566Y-30481D03*
X34566Y-30481D03*
G54D20*
X39763Y-27971D03*
X39763Y-28721D03*
X38976Y-27971D03*
X38976Y-28721D03*
X38188Y-27971D03*
X38188Y-28721D03*
X37401Y-27971D03*
X37401Y-28721D03*
X39763Y-29939D03*
X39763Y-30689D03*
X37795Y-29939D03*
X37795Y-30689D03*
X36220Y-30727D03*
X36220Y-31477D03*
G54D21*
X45275Y-21259D03*
X30314Y-21259D03*
X30314Y-38582D03*
G54D23*
X35097Y-24535D03*
X33797Y-24535D03*
M02*
